<svg width="533" height="1065" fill="none" xmlns="http://www.w3.org/2000/svg"><circle opacity=".3" cx="532.5" cy="532.5" r="376" stroke="#E1E1E1" stroke-opacity=".5"/><circle opacity=".3" cx="532.5" cy="532.5" r="532" stroke="#E1E1E1" stroke-opacity=".5"/><circle opacity=".3" cx="532.5" cy="532.5" r="226" stroke="#E1E1E1" stroke-opacity=".5"/><path d="M199.9 573.3a9.5 9.5 0 1 0-13.4-13.4 9.5 9.5 0 0 0 13.4 13.4ZM310.2 260.8a9.5 9.5 0 1 0-13.4-13.4 9.5 9.5 0 0 0 13.4 13.4ZM343.2 837.6a9.5 9.5 0 1 0 0-19 9.5 9.5 0 0 0 0 19ZM132.9 856.7a9.5 9.5 0 1 0 0-19 9.5 9.5 0 0 0 0 19ZM340.1 643.4a9.5 9.5 0 1 0-13.4-13.4 9.5 9.5 0 0 0 13.4 13.4ZM306.1 78.1a9.5 9.5 0 1 0-13.4-13.4 9.5 9.5 0 0 0 13.4 13.4ZM389.4 395a9.5 9.5 0 1 0 0-19 9.5 9.5 0 0 0 0 19ZM32.3 534.7a9.5 9.5 0 1 0 0-19 9.5 9.5 0 0 0 0 19ZM409.2 1044.4c5.7 0 10.2-4.3 10.2-9.5 0-5.3-4.5-9.5-10.2-9.5-5.6 0-10.2 4.3-10.2 9.5s4.6 9.5 10.2 9.5Z" fill="#090424" stroke="#E1E1E1" stroke-opacity=".2" stroke-miterlimit="10" stroke-linecap="round" stroke-linejoin="round"/></svg>