<svg width="119" height="244" fill="none" xmlns="http://www.w3.org/2000/svg"><path fill-rule="evenodd" clip-rule="evenodd" d="M118.3 144V231c0 1.9.2 3.8-.2 5.5-.6 4.4-3.3 7-7.6 7-4.5.2-7.6-2.3-8.2-7-.3-1.9-.2-3.8-.2-5.5V59.4c0-25-19.3-43.6-44.5-43A42.5 42.5 0 0 0 17 60c-.2 56.5 0 113.1 0 169.7v5c-.2 5.5-3.6 9-8.2 9-4.5-.1-7.7-3.5-7.8-8.6V60.1C1 27.9 22.9 3.7 55 .4a59 59 0 0 1 63.3 54.1l.2 3.4c-.4 28.8-.4 57.5-.2 86.3Z" fill="#fff" fill-opacity=".1"/><path fill-rule="evenodd" clip-rule="evenodd" d="M91.6 67.7v12.5c-.2 5.9-3.4 9.4-8.4 9.2-5 0-8-3.5-8.1-9.6-.2-7.6 0-15.5 0-23.1 0-8.3-3.2-12.2-11.4-13.6-6.2-1.1-9-4.2-8.3-9.3.6-4.8 4.5-7.5 10.5-7a28.4 28.4 0 0 1 25.8 27.8l-.1 13.1ZM60 120c-18.5-.5-35-17-35.4-35.5-.1-6 3-9.8 7.9-10 4.6 0 7.7 3 8.5 8.7 1.7 12.5 8.6 19.5 20.3 20.6 6 .7 9.3 3.7 9 8.6-.5 5.2-4 7.7-10.3 7.6Z" fill="#fff" fill-opacity=".1"/><path fill-rule="evenodd" clip-rule="evenodd" d="M67.7 73.8c0 3.3.2 6.8 0 10.2-.3 5-3.8 8.5-8.2 8.5-4.3 0-8-3.4-8.1-8.5-.3-7-.3-13.9 0-21 .1-5 3.7-8.2 8.1-8.2 4.5 0 7.9 3.3 8.2 8.3.2 3.5 0 7.2 0 10.7Z" fill="#fff" fill-opacity=".1"/></svg>