<svg width="1351" height="970" fill="none" xmlns="http://www.w3.org/2000/svg"><path d="M30.3 646.6a9.3 9.3 0 1 0 0-18.6 9.3 9.3 0 0 0 0 18.6ZM459.2 527a9.3 9.3 0 1 0 0-18.6 9.3 9.3 0 0 0 0 18.6ZM687.3 606.6a9.3 9.3 0 1 0 0-18.6 9.3 9.3 0 0 0 0 18.6ZM459.2 881.7a9.3 9.3 0 1 0 0-18.6 9.3 9.3 0 0 0 0 18.6ZM154.3 915.6a9.3 9.3 0 1 0 0-18.6 9.3 9.3 0 0 0 0 18.6ZM679.3 457.6a9.3 9.3 0 1 0 0-18.6 9.3 9.3 0 0 0 0 18.6ZM579.3 161a9.3 9.3 0 1 0 0-18.6 9.3 9.3 0 0 0 0 18.6ZM713.7 56.6a9.3 9.3 0 1 0 0-18.6 9.3 9.3 0 0 0 0 18.6ZM1249.3 699.6a9.3 9.3 0 1 0 0-18.6 9.3 9.3 0 0 0 0 18.6ZM1128.4 89.5a9.3 9.3 0 1 0 0-18.6 9.3 9.3 0 0 0 0 18.6ZM961.1 568.5a9.3 9.3 0 1 0 0-18.6 9.3 9.3 0 0 0 0 18.6ZM746 968.9c5.4 0 10-4.2 10-9.3 0-5.1-4.6-9.3-10-9.3-5.6 0-10.1 4.2-10.1 9.3 0 5.1 4.5 9.3 10 9.3Z" stroke="#060521" stroke-opacity=".3" stroke-miterlimit="10" stroke-linecap="round" stroke-linejoin="round"/><circle opacity=".3" cx="675.5" cy="62.5" r="476" stroke="#E1E1E1" stroke-opacity=".5"/><circle opacity=".3" cx="675.5" cy="62.5" r="675" stroke="#E1E1E1" stroke-opacity=".5"/><circle opacity=".3" cx="675.5" cy="62.5" r="288" stroke="#E1E1E1" stroke-opacity=".5"/></svg>