<svg width="32" height="32" viewBox="0 0 32 32" fill="none" xmlns="http://www.w3.org/2000/svg">
<rect width="32" height="32" fill="black"/>
<path fill-rule="evenodd" clip-rule="evenodd" d="M22.3043 16.8553C22.3043 17.4972 22.3043 18.1391 22.3043 18.781C22.3043 18.8235 22.3078 18.8661 22.3007 18.9051C22.2865 19.0009 22.2259 19.0576 22.1298 19.0611C22.0301 19.0647 21.9625 19.0079 21.9482 18.9051C21.9411 18.8625 21.9447 18.82 21.9447 18.781C21.9447 17.5114 21.9447 16.2454 21.9447 14.9758C21.9447 14.419 21.5138 14.0076 20.9548 14.0218C20.4492 14.036 20.054 14.4545 20.0504 14.9864C20.0468 16.2418 20.0504 17.4972 20.0504 18.7526C20.0504 18.7916 20.0504 18.8271 20.0504 18.8661C20.0468 18.9867 19.9721 19.0647 19.8688 19.0647C19.7691 19.0611 19.6979 18.9867 19.6943 18.8732C19.6943 18.8519 19.6943 18.8306 19.6943 18.8093C19.6943 17.5362 19.6943 16.2631 19.6943 14.9935C19.6943 14.2736 20.1821 13.7381 20.8978 13.6636C21.5993 13.5927 22.2651 14.1601 22.3043 14.8658C22.3043 14.8907 22.3078 14.9155 22.3078 14.9403C22.3007 15.5786 22.3007 16.217 22.3043 16.8553Z" fill="white"/>
<path fill-rule="evenodd" clip-rule="evenodd" d="M21.7096 15.1602C21.7096 15.2524 21.7131 15.3446 21.7096 15.4368C21.706 15.568 21.6348 15.646 21.5244 15.6425C21.414 15.6425 21.3464 15.5645 21.3428 15.4297C21.3393 15.2595 21.3428 15.0857 21.3428 14.9155C21.3428 14.7311 21.2716 14.646 21.09 14.614C20.9512 14.5892 20.8906 14.5218 20.9049 14.4084C20.9191 14.302 21.0046 14.2417 21.1399 14.2523C21.4532 14.2771 21.6989 14.536 21.7131 14.8694C21.7131 14.9687 21.7096 15.0644 21.7096 15.1602Z" fill="white"/>
<path fill-rule="evenodd" clip-rule="evenodd" d="M21.0082 16.3198C20.5952 16.3092 20.2284 15.9439 20.2213 15.5325C20.2178 15.4013 20.2854 15.3162 20.3958 15.3126C20.4991 15.3091 20.5667 15.3765 20.5845 15.5041C20.6237 15.7808 20.7768 15.9368 21.0367 15.9616C21.172 15.9758 21.2432 16.0432 21.2361 16.1531C21.2254 16.2666 21.1471 16.3234 21.0082 16.3198Z" fill="white"/>
<path fill-rule="evenodd" clip-rule="evenodd" d="M21.1786 15.2949C21.1786 15.3694 21.1821 15.4474 21.1786 15.5219C21.1715 15.6318 21.0931 15.7098 20.997 15.7098C20.9009 15.7098 20.819 15.6354 20.8154 15.5219C20.8083 15.3659 20.8083 15.2134 20.8154 15.0573C20.819 14.9438 20.8973 14.8729 20.997 14.8729C21.0967 14.8729 21.1715 14.9474 21.1786 15.0573C21.1821 15.1353 21.1786 15.2169 21.1786 15.2949Z" fill="white"/>
<path fill-rule="evenodd" clip-rule="evenodd" d="M12.8367 16.0042C12.8225 14.763 12.0285 14.0147 11.035 14.0679C10.2375 14.114 9.52889 14.8303 9.49328 15.6283C9.48972 15.6779 9.49328 15.7276 9.48616 15.7772C9.47192 15.8836 9.41495 15.951 9.30101 15.951C9.17995 15.951 9.1123 15.8765 9.11586 15.763C9.12654 15.5857 9.13722 15.4049 9.17995 15.2346C9.41851 14.2949 10.3265 13.6211 11.2451 13.6884C12.2741 13.7629 13.0682 14.5041 13.1857 15.5077C13.2711 16.2382 13.029 16.8553 12.4807 17.3376C12.1317 17.6426 11.8611 17.9866 11.7507 18.4405C11.74 18.4795 11.7258 18.515 11.7116 18.5504C11.4979 19.0682 11.1027 19.3094 10.5971 19.2313C10.0701 19.1498 9.63927 18.7065 9.59654 18.2029C9.58586 18.0788 9.60366 17.9724 9.74965 17.9405C9.86715 17.9157 9.93836 17.9937 9.96685 18.1604C10.0559 18.6604 10.5259 18.9866 10.9567 18.8412C11.2166 18.7561 11.3448 18.5398 11.4089 18.3093C11.5442 17.7915 11.8362 17.4014 12.2385 17.061C12.6409 16.7276 12.8403 16.2879 12.8367 16.0042Z" fill="white"/>
<path fill-rule="evenodd" clip-rule="evenodd" d="M10.2092 15.8127C10.2768 16.1212 10.3374 16.4298 10.4121 16.7347C10.4513 16.8943 10.4193 16.9972 10.3053 17.0291C10.1914 17.061 10.0881 16.9901 10.0454 16.8482C9.92433 16.4191 9.82107 15.9865 9.88161 15.5361C9.96706 14.8871 10.5652 14.3977 11.2168 14.4332C11.8969 14.4686 12.4417 15.0112 12.4666 15.6708C12.4702 15.8091 12.4097 15.8978 12.2993 15.9049C12.1747 15.9155 12.1034 15.8375 12.0928 15.6744C12.0572 15.2134 11.7047 14.841 11.2631 14.8091C10.7718 14.7736 10.3587 15.0715 10.2555 15.5432C10.2377 15.6283 10.2412 15.7205 10.2341 15.8091C10.227 15.8091 10.2163 15.8091 10.2092 15.8127Z" fill="white"/>
<path fill-rule="evenodd" clip-rule="evenodd" d="M11.206 17.1744C11.1775 17.373 11.1098 17.5362 10.9425 17.6177C10.7894 17.6922 10.6185 17.7348 10.4511 17.7667C10.3443 17.788 10.2589 17.7206 10.2482 17.6C10.2375 17.4794 10.3051 17.4085 10.4191 17.3979C10.857 17.3553 10.8286 17.2596 10.7467 16.8837C10.7217 16.7737 10.6754 16.6709 10.6327 16.5645C10.5864 16.451 10.6078 16.3552 10.7217 16.3056C10.8357 16.256 10.9354 16.2985 10.9745 16.4155C11.0564 16.6673 11.1312 16.9227 11.206 17.1744Z" fill="white"/>
<path fill-rule="evenodd" clip-rule="evenodd" d="M18.6835 12.5784C17.3661 14.5466 14.7383 14.5254 13.5918 12.5359C14.8167 10.5996 17.3447 10.6209 18.6835 12.5784ZM18.4343 12.582C17.1275 10.8656 15.0267 10.8514 13.841 12.5394C15.308 14.5502 17.1453 14.0927 18.4343 12.582Z" fill="white"/>
<path d="M18.6832 12.5785L18.644 12.5536C17.9996 13.5182 17.0382 13.997 16.0946 13.997C15.1368 13.997 14.2004 13.5041 13.6307 12.5146L13.5915 12.5359L13.6307 12.5607C14.2288 11.6103 15.1439 11.1422 16.0733 11.1422C17.0168 11.1422 17.9782 11.628 18.6476 12.6033L18.6832 12.5785L18.7188 12.5536C18.0387 11.5571 17.0453 11.0535 16.0697 11.0535C15.1083 11.0535 14.1648 11.5429 13.5523 12.5146L13.5381 12.5359L13.5523 12.5607C14.1363 13.575 15.1083 14.0892 16.0946 14.0892C17.0667 14.0892 18.0565 13.5927 18.7188 12.6068L18.7366 12.582L18.7188 12.5572L18.6832 12.5785ZM18.434 12.582L18.4696 12.5536C17.8037 11.6777 16.9278 11.238 16.0697 11.238C15.2258 11.238 14.3998 11.6671 13.8051 12.5111L13.7873 12.5359L13.8051 12.5607C14.1541 13.0395 14.5244 13.3799 14.9054 13.6034C15.2864 13.8268 15.678 13.9296 16.0661 13.9296C16.5005 13.9296 16.9314 13.8019 17.3373 13.5714C17.7432 13.3409 18.1277 13.0111 18.4696 12.6104L18.4945 12.582L18.4731 12.5536L18.434 12.582L18.3984 12.5536C18.0601 12.9508 17.6862 13.2735 17.291 13.497C16.8958 13.7204 16.4827 13.8445 16.0626 13.8445C15.6923 13.8445 15.3148 13.7452 14.9481 13.5324C14.5814 13.3161 14.2182 12.9863 13.8763 12.5146L13.8407 12.5395L13.8763 12.5643C14.4567 11.738 15.2543 11.3302 16.0697 11.3302C16.8993 11.3302 17.7468 11.7522 18.3984 12.6104L18.434 12.582Z" fill="white"/>
<path fill-rule="evenodd" clip-rule="evenodd" d="M16.1231 13.7133C15.4857 13.7098 14.9837 13.1955 14.9908 12.5608C14.9979 11.9366 15.5071 11.4366 16.1338 11.433C16.764 11.4295 17.2838 11.9472 17.2803 12.5785C17.2767 13.2097 16.7604 13.7169 16.1231 13.7133ZM15.1866 12.5714C15.1831 13.0892 15.5997 13.5112 16.1231 13.5183C16.6465 13.5254 17.0845 13.0998 17.088 12.5749C17.088 12.0572 16.6714 11.6352 16.1516 11.6281C15.621 11.621 15.1902 12.043 15.1866 12.5714Z" fill="white"/>
<path d="M16.1234 13.7133V13.6672C15.8207 13.6636 15.5466 13.5431 15.3507 13.3445C15.1549 13.1459 15.0338 12.8728 15.0338 12.5714C15.0338 12.5678 15.0338 12.5643 15.0338 12.5572C15.041 11.9579 15.5288 11.4756 16.1305 11.4756H16.1341C16.4367 11.4756 16.7109 11.5997 16.9103 11.7983C17.1097 11.9969 17.2343 12.2699 17.2343 12.5714V12.5749C17.2308 13.1813 16.7394 13.6636 16.1341 13.6636C16.1305 13.6636 16.127 13.6636 16.1234 13.6636V13.7133V13.7594C16.127 13.7594 16.1305 13.7594 16.1341 13.7594C16.7892 13.7594 17.3198 13.2345 17.3233 12.5785V12.5749C17.3233 11.9224 16.7892 11.3904 16.1341 11.3904H16.1305C15.4789 11.394 14.9519 11.9118 14.9448 12.5607C14.9448 12.5643 14.9448 12.5714 14.9448 12.5749C14.9448 13.2274 15.4647 13.7558 16.1234 13.7594V13.7133ZM15.1869 12.5714H15.1407V12.5785C15.1407 13.1175 15.5786 13.5573 16.1198 13.5643C16.1234 13.5643 16.1305 13.5643 16.1341 13.5643C16.6789 13.5643 17.1275 13.1211 17.1275 12.5749V12.5714C17.1275 12.0323 16.6895 11.589 16.1448 11.582C16.1412 11.582 16.1341 11.582 16.1305 11.582C15.5857 11.582 15.1371 12.0217 15.1371 12.5714H15.1869H15.2332C15.2368 12.0749 15.6427 11.6742 16.1376 11.6742C16.1412 11.6742 16.1448 11.6742 16.1483 11.6742C16.6432 11.6812 17.042 12.0855 17.042 12.5749V12.5785C17.042 13.0714 16.6326 13.4757 16.1376 13.4757C16.1341 13.4757 16.127 13.4757 16.1234 13.4757C15.6285 13.4686 15.2332 13.0679 15.2332 12.5785V12.5749L15.1869 12.5714Z" fill="white"/>
<path fill-rule="evenodd" clip-rule="evenodd" d="M15.5678 12.5146C15.5571 12.8763 15.7778 13.1317 16.0983 13.1494C16.4223 13.1671 16.6929 12.9295 16.7143 12.6104C16.7356 12.3054 16.5113 12.05 16.2087 12.0288C16.6644 12.848 15.817 12.9153 15.5678 12.5146Z" fill="white"/>
<path fill-rule="evenodd" clip-rule="evenodd" d="M18.256 9.93288C18.3023 9.97189 18.3628 9.99671 18.3735 10.0357C18.3842 10.0889 18.3735 10.1669 18.3379 10.2024C18.199 10.3549 18.0459 10.4967 17.8999 10.6457C17.8465 10.6989 17.7931 10.7556 17.7397 10.8053C17.6685 10.8691 17.5759 10.8691 17.5189 10.8088C17.4655 10.7521 17.4726 10.6705 17.5439 10.5996C17.7361 10.4045 17.9284 10.213 18.1242 10.0215C18.1563 9.98962 18.2026 9.96834 18.256 9.93288Z" fill="white"/>
<path d="M18.2557 9.93293L18.245 9.94357C18.2699 9.96485 18.2948 9.97904 18.3162 9.99677C18.3269 10.0039 18.3375 10.011 18.3411 10.018C18.3482 10.0251 18.3518 10.0322 18.3518 10.0393C18.3553 10.05 18.3553 10.0641 18.3553 10.0783C18.3553 10.1209 18.3411 10.1705 18.3197 10.1918C18.1809 10.3443 18.0313 10.4862 17.8818 10.6351C17.8284 10.6883 17.775 10.745 17.7216 10.7947C17.6895 10.8266 17.6503 10.8408 17.6147 10.8408C17.5791 10.8408 17.5471 10.8266 17.5222 10.7982C17.5008 10.777 17.4901 10.7521 17.4901 10.7238C17.4901 10.6883 17.5079 10.6493 17.5471 10.6103C17.7394 10.4152 17.9316 10.2237 18.1275 10.0322C18.1595 10.0003 18.2022 9.98258 18.2557 9.94712V9.93293L18.2485 9.91875C18.1987 9.95421 18.1524 9.97194 18.1132 10.0074C17.9174 10.1989 17.7251 10.394 17.5328 10.5855C17.4901 10.628 17.4688 10.6741 17.4688 10.7202C17.4688 10.7557 17.483 10.7876 17.5079 10.816C17.54 10.8479 17.5791 10.8656 17.6219 10.8656C17.6646 10.8656 17.7109 10.8479 17.75 10.8124C17.807 10.7628 17.8604 10.706 17.9138 10.6528C18.0598 10.5074 18.2129 10.3656 18.3518 10.2095C18.3803 10.1776 18.3945 10.1244 18.3945 10.0748C18.3945 10.0571 18.3945 10.0429 18.391 10.0287C18.3874 10.0145 18.3803 10.0039 18.3732 9.99322C18.3589 9.97904 18.3411 9.96485 18.3233 9.95421C18.3055 9.94357 18.2877 9.92939 18.2699 9.9152L18.2628 9.90811L18.2521 9.9152L18.2557 9.93293Z" fill="white"/>
<path fill-rule="evenodd" clip-rule="evenodd" d="M14.257 10.7272C14.2286 10.7627 14.2036 10.8194 14.1645 10.8336C14.1217 10.8514 14.0434 10.8478 14.0114 10.8194C13.7942 10.6138 13.5805 10.401 13.3704 10.1882C13.3135 10.1315 13.3277 10.0428 13.3882 9.99315C13.4488 9.93995 13.5236 9.9435 13.5912 10.0073C13.7906 10.2024 13.99 10.401 14.1894 10.5996C14.2001 10.6102 14.2143 10.6244 14.2214 10.6386C14.2357 10.6599 14.2428 10.6847 14.257 10.7272Z" fill="white"/>
<path d="M14.2569 10.7273L14.2462 10.7167C14.232 10.7344 14.2177 10.7592 14.2035 10.777C14.1893 10.7982 14.175 10.8124 14.1608 10.816C14.1465 10.8231 14.1216 10.8266 14.1002 10.8266C14.0824 10.8266 14.0682 10.8231 14.0539 10.8195C14.0397 10.816 14.029 10.8089 14.0219 10.8053C13.8047 10.5996 13.5911 10.3869 13.381 10.1741C13.3596 10.1528 13.3489 10.1244 13.3489 10.0996C13.3489 10.0641 13.3667 10.0287 13.3952 10.0003C13.4202 9.97903 13.4486 9.96839 13.4771 9.96839C13.5092 9.96839 13.5448 9.98258 13.5804 10.018C13.7798 10.2131 13.9792 10.4117 14.1786 10.6103C14.1893 10.6209 14.1999 10.6316 14.2071 10.6457C14.2177 10.667 14.2249 10.6918 14.2427 10.7344L14.2569 10.7273L14.2711 10.7238C14.2569 10.6812 14.2498 10.6564 14.2355 10.6316C14.2284 10.6138 14.2142 10.5996 14.1999 10.589C14.0005 10.3904 13.8011 10.1954 13.6017 9.99676C13.5626 9.95775 13.5199 9.94002 13.4771 9.94002C13.4415 9.94002 13.4059 9.95421 13.3739 9.97903C13.3383 10.0109 13.3169 10.0535 13.3169 10.0996C13.3169 10.1351 13.3311 10.167 13.3561 10.1954C13.5661 10.4117 13.7798 10.6245 13.997 10.8301C14.0077 10.8408 14.0255 10.8479 14.0397 10.8514C14.0575 10.855 14.0753 10.8585 14.0931 10.8585C14.118 10.8585 14.143 10.855 14.1643 10.8479C14.1893 10.8372 14.2071 10.816 14.2213 10.7982C14.2355 10.777 14.2498 10.7557 14.2605 10.7379L14.2676 10.7309L14.264 10.7238L14.2569 10.7273Z" fill="white"/>
<path fill-rule="evenodd" clip-rule="evenodd" d="M15.9987 9.80521C15.9987 9.93997 15.9987 10.0747 15.9987 10.2095C15.9987 10.3123 15.9453 10.3726 15.8563 10.3726C15.7673 10.3726 15.7139 10.3159 15.7139 10.2059C15.7139 9.93288 15.7139 9.65981 15.7139 9.38675C15.7139 9.2839 15.7744 9.22007 15.8563 9.22007C15.9417 9.22007 15.9987 9.2839 15.9987 9.38675C15.9987 9.5286 15.9987 9.66691 15.9987 9.80521Z" fill="white"/>
<path d="M15.998 9.80523H15.9837C15.9837 9.88679 15.9837 9.96836 15.9837 10.0464C15.9837 10.0996 15.9837 10.1528 15.9837 10.2095C15.9837 10.2592 15.9695 10.2946 15.9481 10.3194C15.9268 10.3443 15.8947 10.3585 15.8555 10.3585C15.8164 10.3585 15.7843 10.3443 15.763 10.323C15.7416 10.2982 15.7309 10.2627 15.7274 10.2095C15.7274 10.0747 15.7274 9.94353 15.7274 9.80877C15.7274 9.67046 15.7274 9.52861 15.7274 9.3903C15.7274 9.34066 15.7416 9.30519 15.763 9.27682C15.7843 9.252 15.8164 9.23781 15.852 9.23781C15.8911 9.23781 15.9196 9.252 15.9446 9.27682C15.9659 9.30165 15.9802 9.34066 15.9802 9.3903C15.9802 9.44705 15.9802 9.50024 15.9802 9.55698C15.9802 9.63855 15.9802 9.72366 15.9802 9.80523H15.998H16.0122C16.0122 9.72366 16.0122 9.63855 16.0122 9.55698C16.0122 9.50024 16.0122 9.44705 16.0122 9.3903C16.0122 9.33711 15.998 9.29101 15.9695 9.25909C15.941 9.22717 15.9018 9.20944 15.8555 9.20944H15.852C15.8057 9.20944 15.7665 9.22717 15.738 9.25909C15.7096 9.29101 15.6953 9.33711 15.6953 9.3903C15.6953 9.52861 15.6953 9.67046 15.6953 9.80877C15.6953 9.94353 15.6953 10.0747 15.6953 10.2095C15.6953 10.2662 15.7096 10.3088 15.738 10.3407C15.7665 10.3726 15.8057 10.3868 15.852 10.3868C15.8983 10.3868 15.941 10.3691 15.9695 10.3372C15.998 10.3053 16.0122 10.2627 16.0122 10.206C16.0122 10.1528 16.0122 10.096 16.0122 10.0428C16.0122 9.96126 16.0122 9.8797 16.0122 9.80168H15.998V9.80523Z" fill="white"/>
<path fill-rule="evenodd" clip-rule="evenodd" d="M16.8353 18.7455C17.0987 18.742 17.3729 18.7278 17.5047 18.4334C17.6364 18.1356 17.5047 17.9015 17.2875 17.7029C16.9706 17.4157 16.643 17.1355 16.3297 16.8447C15.8703 16.4262 15.6211 15.9049 15.5997 15.2843C15.5962 15.2063 15.6781 15.1283 15.7208 15.0467C15.7635 15.1212 15.8418 15.1921 15.8454 15.2666C15.881 15.8765 16.1409 16.3624 16.6038 16.756C16.9207 17.0291 17.2341 17.3128 17.5367 17.6036C17.7325 17.788 17.8358 18.0221 17.8038 18.2987C17.7432 18.8164 17.0952 19.1746 16.6003 18.9583C16.5575 18.9406 16.5006 18.8696 16.5077 18.8342C16.5148 18.7916 16.5789 18.742 16.6252 18.7313C16.6857 18.7172 16.7569 18.7384 16.8353 18.7455Z" fill="white"/>
<path d="M16.835 18.7455V18.7739C16.9667 18.7739 17.1056 18.7703 17.2302 18.7278C17.2907 18.7065 17.3513 18.6746 17.4011 18.6285C17.451 18.5824 17.4972 18.5221 17.5293 18.4441C17.5685 18.359 17.5827 18.2774 17.5827 18.1994C17.5827 18.0965 17.5542 18.0043 17.5044 17.9157C17.4545 17.8306 17.3833 17.749 17.305 17.6781C16.9881 17.3908 16.6605 17.1107 16.3472 16.8199C15.895 16.4049 15.6493 15.8907 15.6279 15.2808V15.2772C15.6279 15.263 15.6315 15.2488 15.6386 15.2311C15.6493 15.2063 15.6671 15.1779 15.6884 15.1495C15.7098 15.1212 15.7312 15.0893 15.749 15.0609L15.7241 15.0467L15.6991 15.0609C15.7241 15.0999 15.7525 15.1354 15.7775 15.1708C15.8024 15.2063 15.8166 15.2382 15.8202 15.2666C15.8558 15.8836 16.1228 16.3801 16.5857 16.7773C16.9026 17.0504 17.2124 17.3341 17.5186 17.6249C17.686 17.7845 17.7821 17.976 17.7821 18.1994C17.7821 18.2313 17.7785 18.2632 17.775 18.2951C17.7536 18.4937 17.6397 18.6675 17.4794 18.7916C17.3192 18.9157 17.1163 18.9938 16.9133 18.9938C16.81 18.9938 16.7068 18.976 16.6106 18.9335C16.5964 18.9264 16.575 18.9086 16.5608 18.8909C16.5537 18.8803 16.5466 18.8696 16.543 18.8625C16.5394 18.8519 16.5359 18.8448 16.5359 18.8413C16.5359 18.8377 16.5394 18.8306 16.5466 18.8235C16.5537 18.8094 16.5715 18.7952 16.5857 18.7845C16.6035 18.7739 16.6213 18.7668 16.632 18.7632C16.6427 18.7597 16.6569 18.7597 16.6712 18.7597C16.7175 18.7597 16.7744 18.7739 16.835 18.781V18.7455L16.8385 18.7171C16.7816 18.7101 16.7246 18.6959 16.6676 18.6959C16.6498 18.6959 16.632 18.6959 16.6142 18.6994C16.5822 18.7065 16.5537 18.7242 16.5252 18.7455C16.511 18.7562 16.5003 18.7703 16.4896 18.781C16.4789 18.7952 16.4718 18.8094 16.4718 18.8271C16.4718 18.8306 16.4718 18.8342 16.4718 18.8377C16.4718 18.8555 16.4753 18.8696 16.4825 18.8838C16.4931 18.9051 16.5074 18.9264 16.5252 18.9441C16.543 18.9618 16.5608 18.976 16.5822 18.9867C16.6854 19.0328 16.7994 19.054 16.9097 19.054C17.1269 19.054 17.3441 18.9725 17.5115 18.8413C17.6788 18.7065 17.8035 18.5186 17.8284 18.3022C17.8319 18.2668 17.8355 18.2348 17.8355 18.1994C17.8355 17.9582 17.7322 17.749 17.5542 17.5823C17.248 17.2915 16.9382 17.0078 16.6213 16.7347C16.1656 16.3447 15.9092 15.8659 15.8736 15.2666C15.87 15.2205 15.8451 15.1779 15.8202 15.1424C15.7953 15.1034 15.7632 15.068 15.7454 15.0361L15.7169 14.99L15.692 15.0361C15.6742 15.0715 15.6422 15.1105 15.6172 15.1495C15.603 15.1708 15.5923 15.1921 15.5816 15.2134C15.5709 15.2347 15.5674 15.2595 15.5674 15.2808V15.2843C15.5887 15.912 15.8451 16.444 16.308 16.866C16.6249 17.1568 16.9489 17.4369 17.2658 17.7242C17.3441 17.7951 17.4082 17.8696 17.4545 17.9476C17.5008 18.0256 17.5257 18.1107 17.5257 18.1994C17.5257 18.2668 17.5115 18.3412 17.4759 18.4193C17.4438 18.4902 17.4047 18.5434 17.3619 18.5824C17.2943 18.6427 17.2124 18.6746 17.1234 18.6923C17.0344 18.7101 16.9347 18.7136 16.835 18.7136V18.7455Z" fill="white"/>
<path fill-rule="evenodd" clip-rule="evenodd" d="M15.2613 19.0151C14.916 19.0186 14.6204 18.8484 14.5278 18.6108C14.4068 18.3058 14.5172 18.0398 14.681 17.788C14.7023 17.7526 14.7807 17.7561 14.8341 17.7384C14.8519 17.7987 14.8875 17.859 14.8804 17.9157C14.8661 17.9902 14.8127 18.054 14.7842 18.1249C14.7166 18.3022 14.6845 18.476 14.8447 18.625C15.005 18.7739 15.2044 18.8165 15.3931 18.7101C15.5782 18.6072 15.7313 18.4405 15.9201 18.3483C16.1123 18.2561 16.3295 18.2065 16.5396 18.1604C16.5788 18.1533 16.6393 18.249 16.6892 18.2952C16.6322 18.3306 16.5752 18.3696 16.5147 18.398C16.3402 18.4725 16.1444 18.515 15.9913 18.6214C15.7385 18.7952 15.5177 19.0009 15.2613 19.0151Z" fill="white"/>
<path d="M15.2617 19.015V18.9867C15.2581 18.9867 15.251 18.9867 15.2474 18.9867C15.0836 18.9867 14.9305 18.9441 14.8095 18.8767C14.6884 18.8093 14.5994 18.71 14.5567 18.6037C14.5211 18.5185 14.5068 18.437 14.5068 18.3554C14.5068 18.1639 14.5923 17.983 14.7062 17.8093C14.7062 17.8057 14.7098 17.8022 14.7205 17.7986C14.7311 17.7915 14.7525 17.788 14.7739 17.7844C14.7952 17.7809 14.8202 17.7774 14.8415 17.7703L14.8344 17.7419L14.8059 17.749C14.813 17.7774 14.8273 17.8057 14.8344 17.8306C14.8451 17.8554 14.8522 17.8802 14.8522 17.8979C14.8522 17.9015 14.8522 17.9086 14.8522 17.9121C14.8486 17.944 14.8308 17.976 14.813 18.0079C14.7952 18.0398 14.7739 18.0752 14.7561 18.1143C14.724 18.1994 14.6991 18.2845 14.6991 18.3696C14.6991 18.4192 14.7062 18.4653 14.7276 18.515C14.7489 18.5611 14.781 18.6072 14.8237 18.6498C14.927 18.7455 15.0516 18.8022 15.1762 18.8022C15.251 18.8022 15.3293 18.781 15.4041 18.742C15.5002 18.6888 15.5857 18.6214 15.6711 18.554C15.7566 18.4866 15.8385 18.4263 15.9311 18.3802C16.1162 18.288 16.3334 18.2419 16.5435 18.1958L16.5399 18.1887V18.1958H16.5435L16.5399 18.1887V18.1958C16.5399 18.1958 16.5506 18.1994 16.5577 18.21C16.572 18.2242 16.5898 18.2419 16.6076 18.2632C16.6254 18.2845 16.6432 18.3058 16.6646 18.3235L16.6859 18.3022L16.6717 18.2774C16.6112 18.3129 16.5577 18.3519 16.5008 18.3767C16.4153 18.4122 16.3227 18.4441 16.2337 18.476C16.1447 18.5079 16.0521 18.5469 15.9738 18.6037C15.8492 18.6888 15.7317 18.7845 15.6142 18.859C15.4967 18.9335 15.3827 18.9831 15.2617 18.9902V19.015V19.0434C15.397 19.0363 15.5216 18.9796 15.6427 18.9015C15.7637 18.8271 15.8812 18.7313 16.0023 18.6462C16.0735 18.5966 16.159 18.5611 16.248 18.5256C16.337 18.4937 16.4296 18.4618 16.5186 18.4263C16.5827 18.398 16.6396 18.3554 16.6966 18.3235L16.7322 18.3022L16.7037 18.2738C16.6824 18.2526 16.6539 18.2206 16.629 18.1887C16.6147 18.1745 16.604 18.1604 16.5898 18.1497C16.5827 18.1426 16.5755 18.1391 16.5684 18.1355C16.5613 18.132 16.5506 18.1284 16.5399 18.1284C16.5364 18.1284 16.5328 18.1284 16.5293 18.1284C16.3192 18.1745 16.0984 18.2206 15.9061 18.3164C15.8065 18.366 15.721 18.4299 15.6355 18.4973C15.5501 18.5646 15.4682 18.6285 15.3756 18.6781C15.308 18.7136 15.2403 18.7313 15.1762 18.7313C15.0658 18.7313 14.959 18.6852 14.8629 18.5966C14.8237 18.5611 14.7988 18.5221 14.781 18.4831C14.7632 18.4441 14.7561 18.4051 14.7561 18.3625C14.7561 18.288 14.7774 18.21 14.8095 18.1284C14.8237 18.0965 14.8415 18.0646 14.8629 18.0291C14.8807 17.9937 14.9021 17.9582 14.9092 17.9157C14.9092 17.9086 14.9127 17.9015 14.9127 17.8908C14.9127 17.8589 14.9021 17.8306 14.8914 17.8022C14.8807 17.7738 14.87 17.749 14.8629 17.7242L14.8558 17.7029L14.8273 17.71C14.8059 17.7171 14.7739 17.7206 14.7418 17.7277C14.7276 17.7313 14.7098 17.7348 14.6955 17.7419C14.6813 17.749 14.667 17.7561 14.6564 17.7738C14.5389 17.9547 14.4463 18.1426 14.4463 18.3519C14.4463 18.4405 14.4641 18.5292 14.4997 18.6214C14.5495 18.7455 14.6492 18.8519 14.781 18.9264C14.9127 19.0008 15.073 19.0434 15.2474 19.0434C15.251 19.0434 15.2581 19.0434 15.2617 19.0434V19.015Z" fill="white"/>
<path fill-rule="evenodd" clip-rule="evenodd" d="M16.0587 20.852C16.7245 20.3591 17.077 20.3733 17.7927 20.7421C18.2058 20.9549 18.6864 21.0329 19.1351 21.1747C19.2348 21.2067 19.3986 21.2421 19.4128 21.3024C19.4342 21.3982 19.3808 21.5436 19.3095 21.618C17.3654 23.6501 14.7733 23.6572 12.8114 21.6145C12.7437 21.5436 12.669 21.384 12.701 21.3308C12.7509 21.2492 12.8897 21.2102 12.9965 21.1783C13.4345 21.04 13.9187 20.9797 14.3104 20.7563C14.9406 20.3946 15.4925 20.352 16.0587 20.852ZM18.779 21.423C18.4942 21.3272 18.2948 21.2776 18.1061 21.196C17.9173 21.1145 17.7357 21.0116 17.5577 20.9088C17.077 20.6251 16.6889 20.6463 16.283 21.0187C16.1157 21.1747 16.0124 21.1677 15.8486 21.0187C15.4676 20.6676 15.0866 20.6393 14.6522 20.8627C14.2641 21.0648 13.8653 21.2457 13.463 21.4407C15.197 21.923 16.9453 21.9833 18.779 21.423ZM13.26 21.6535C14.8267 23.2671 17.2337 23.3132 18.8609 21.6677C16.988 22.2528 15.14 22.1784 13.26 21.6535Z" fill="white"/>
<path d="M16.0587 20.852L16.0765 20.8769C16.2509 20.7457 16.4041 20.6535 16.5429 20.5932C16.6853 20.5329 16.8135 20.5045 16.9488 20.5045C17.1874 20.5045 17.4402 20.5967 17.7785 20.7705C18.1951 20.9833 18.6793 21.0613 19.1244 21.2031C19.1778 21.2209 19.2419 21.2351 19.2953 21.2563C19.3202 21.267 19.3451 21.2776 19.3594 21.2882C19.3665 21.2918 19.3736 21.2989 19.3772 21.3024C19.3807 21.306 19.3807 21.3095 19.3807 21.3095C19.3843 21.3202 19.3843 21.3343 19.3843 21.3485C19.3843 21.3875 19.3736 21.4372 19.3558 21.4833C19.338 21.5294 19.3131 21.572 19.2846 21.6003C18.3161 22.611 17.191 23.1182 16.0622 23.1182C14.9371 23.1182 13.8083 22.6146 12.8327 21.5968C12.8078 21.572 12.7793 21.5294 12.758 21.4833C12.7473 21.462 12.7402 21.4407 12.733 21.4195C12.7259 21.3982 12.7224 21.3805 12.7224 21.3663C12.7224 21.3556 12.7259 21.3485 12.7259 21.345C12.7437 21.3131 12.7864 21.2847 12.8363 21.2634C12.8897 21.2421 12.9502 21.2209 13.0036 21.2067C13.438 21.0684 13.9223 21.0081 14.3211 20.7847C14.6237 20.6144 14.905 20.5151 15.1756 20.5151C15.464 20.5151 15.7453 20.6251 16.0337 20.8769L16.0515 20.8946L16.0694 20.8804L16.0587 20.852L16.08 20.8308C15.7845 20.5683 15.4854 20.4513 15.1828 20.4513C14.8979 20.4513 14.6059 20.5542 14.2997 20.7279C13.9152 20.9443 13.4345 21.0045 12.993 21.1464C12.9396 21.1641 12.8755 21.1819 12.8185 21.2067C12.7615 21.2315 12.7081 21.2634 12.6796 21.3131C12.6689 21.3308 12.6689 21.3485 12.6689 21.3663C12.6689 21.4088 12.6867 21.4585 12.7081 21.5081C12.733 21.5578 12.7615 21.6039 12.7936 21.6358C13.7763 22.6642 14.9228 23.1784 16.0694 23.1749C17.2159 23.1749 18.3588 22.6607 19.3345 21.6393C19.3701 21.6039 19.3985 21.5542 19.4199 21.5046C19.4413 21.4549 19.452 21.3982 19.452 21.3485C19.452 21.3308 19.452 21.3131 19.4484 21.2953C19.4448 21.2812 19.4377 21.2705 19.4306 21.2599C19.4163 21.2421 19.395 21.2315 19.3736 21.2209C19.3416 21.2031 19.3024 21.1925 19.2597 21.1783C19.2205 21.1677 19.1813 21.1535 19.1493 21.1464C18.6971 21.0045 18.22 20.9265 17.8105 20.7173C17.4687 20.5435 17.2088 20.4442 16.9524 20.4442C16.81 20.4442 16.6711 20.4761 16.5216 20.54C16.3756 20.6038 16.2189 20.6996 16.0409 20.8308L16.0587 20.852ZM18.779 21.423L18.7897 21.3946C18.5048 21.2989 18.3019 21.2492 18.1167 21.1677C17.928 21.0897 17.75 20.9868 17.5719 20.884C17.3512 20.7563 17.1482 20.6854 16.9524 20.6854C16.8313 20.6854 16.7174 20.7102 16.5999 20.7634C16.4859 20.8166 16.372 20.8946 16.2581 20.9974C16.2189 21.0365 16.1833 21.0613 16.1512 21.079C16.1192 21.0967 16.0907 21.1038 16.0622 21.1038C16.0337 21.1038 16.0053 21.0967 15.9732 21.079C15.9412 21.0613 15.9056 21.0329 15.8628 20.9974C15.6385 20.7918 15.4071 20.6889 15.1685 20.6889C14.9976 20.6889 14.8196 20.7386 14.6344 20.8343C14.2463 21.0329 13.8475 21.2173 13.4452 21.4124L13.374 21.4478L13.4487 21.4691C14.3353 21.7174 15.229 21.8557 16.1334 21.8557C17.0022 21.8557 17.8817 21.728 18.7826 21.4549L18.8716 21.4266L18.7826 21.3982L18.779 21.423L18.7719 21.3946C17.8782 21.6677 17.0022 21.7954 16.1406 21.7954C15.2397 21.7954 14.3531 21.6571 13.4701 21.4124L13.463 21.4407L13.4772 21.4691C13.8796 21.2741 14.2784 21.0932 14.6665 20.8911C14.8445 20.7989 15.0118 20.7528 15.1721 20.7528C15.3964 20.7528 15.61 20.845 15.8272 21.0436C15.87 21.0826 15.9091 21.1145 15.9483 21.1358C15.9875 21.157 16.0266 21.1677 16.0658 21.1677C16.105 21.1677 16.1441 21.157 16.1833 21.1358C16.2225 21.1145 16.2616 21.0861 16.3044 21.0436C16.4147 20.9407 16.5216 20.8698 16.6284 20.8201C16.7352 20.7705 16.842 20.7492 16.9559 20.7492C17.1375 20.7492 17.3298 20.813 17.5435 20.9372C17.7215 21.04 17.9031 21.1428 18.0954 21.2244C18.2876 21.306 18.487 21.3592 18.7719 21.4514L18.779 21.423ZM13.26 21.6535L13.2386 21.6748C14.0362 22.494 15.0474 22.9125 16.0658 22.9125C17.0663 22.9125 18.0704 22.5082 18.8823 21.689L18.9677 21.6039L18.8538 21.6393C17.9565 21.9195 17.0628 22.0507 16.1726 22.0507C15.2077 22.0507 14.2427 21.8982 13.2707 21.6251L13.1639 21.5968L13.2422 21.6748L13.26 21.6535L13.2529 21.6819C14.2285 21.955 15.2006 22.1074 16.169 22.1074C17.0663 22.1074 17.9636 21.9762 18.868 21.6961L18.8573 21.6677L18.836 21.6464C18.0348 22.455 17.045 22.8522 16.0622 22.8522C15.0617 22.8522 14.0647 22.4408 13.2778 21.6322L13.26 21.6535Z" fill="white"/>
<path d="M10.2412 24.3381L10.3694 24.2955L6.84438 13.4863L15.9988 6.86533L25.1532 13.4863L21.6566 24.2033H10.2412V24.3381V24.4728H21.8525L25.4736 13.3835L15.9988 6.52843L6.52393 13.3835L10.1415 24.4728H10.2412V24.3381Z" fill="white"/>
<path d="M16.6966 6.69508C16.6966 7.07808 16.3832 7.39016 15.9987 7.39016C15.6141 7.39016 15.3008 7.07808 15.3008 6.69508C15.3008 6.31208 15.6141 6 15.9987 6C16.3832 6 16.6966 6.31208 16.6966 6.69508Z" fill="white"/>
<path d="M26.0003 13.3409C26.0003 13.7239 25.6869 14.036 25.3024 14.036C24.9178 14.036 24.6045 13.7239 24.6045 13.3409C24.6045 12.9579 24.9178 12.6458 25.3024 12.6458C25.6869 12.6458 26.0003 12.9579 26.0003 13.3409Z" fill="white"/>
<path d="M22.4754 24.3381C22.4754 24.7211 22.162 25.0331 21.7775 25.0331C21.3929 25.0331 21.0796 24.7211 21.0796 24.3381C21.0796 23.9551 21.3929 23.643 21.7775 23.643C22.162 23.6394 22.4754 23.9515 22.4754 24.3381Z" fill="white"/>
<path d="M10.7283 24.3381C10.7283 24.7211 10.415 25.0331 10.0304 25.0331C9.64586 25.0331 9.33252 24.7211 9.33252 24.3381C9.33252 23.9551 9.64586 23.643 10.0304 23.643C10.4185 23.6394 10.7283 23.9515 10.7283 24.3381Z" fill="white"/>
<path d="M7.39577 13.4331C7.39577 13.8161 7.08243 14.1282 6.69788 14.1282C6.31334 14.1282 6 13.8161 6 13.4331C6 13.0501 6.31334 12.738 6.69788 12.738C7.08243 12.738 7.39577 13.0501 7.39577 13.4331Z" fill="white"/>
</svg>
