<svg width="285" height="56" viewBox="0 0 285 56" fill="none" xmlns="http://www.w3.org/2000/svg">
<path fill-rule="evenodd" clip-rule="evenodd" d="M47.7771 31.9366V37.6073C47.782 37.7308 47.7783 37.8545 47.7658 37.9775C47.7579 38.1032 47.7014 38.2208 47.6083 38.3055C47.5152 38.3903 47.3927 38.4354 47.2668 38.4315C46.9703 38.4397 46.7801 38.2699 46.73 37.9734C46.7171 37.8508 46.7143 37.7273 46.7219 37.6043C46.7219 33.8729 46.7219 30.1418 46.7219 26.411C46.7219 24.775 45.454 23.5634 43.8251 23.6084C42.3456 23.6482 41.181 24.8834 41.1789 26.4417C41.1714 30.1356 41.1714 33.8296 41.1789 37.5235C41.1789 37.635 41.1789 37.7464 41.1789 37.8568C41.1636 38.2106 40.9468 38.4437 40.6421 38.4366C40.3374 38.4294 40.1452 38.2055 40.1309 37.8732C40.1309 37.8108 40.1309 37.7495 40.1309 37.6871C40.1309 33.9448 40.1309 30.2018 40.1309 26.4581C40.1309 24.3435 41.5624 22.7658 43.6595 22.548C45.7178 22.3354 47.6687 24.0092 47.7761 26.0808C47.7761 26.1554 47.7853 26.229 47.7853 26.3037V31.9366H47.7771Z" fill="white"/>
<path fill-rule="evenodd" clip-rule="evenodd" d="M46.0399 26.9508C46.0399 27.2218 46.047 27.4938 46.0399 27.7688C46.0276 28.1594 45.8231 28.3823 45.4939 28.3772C45.1646 28.3721 44.9703 28.1502 44.9642 27.7535C44.956 27.2474 44.9642 26.7422 44.9642 26.2361C44.9642 25.6901 44.7515 25.4457 44.2229 25.3517C43.82 25.2791 43.6411 25.0807 43.681 24.7494C43.7188 24.4335 43.9734 24.2637 44.365 24.2934C45.2853 24.3629 46.001 25.1328 46.0409 26.1042C46.0532 26.3874 46.0409 26.6707 46.0409 26.9549L46.0399 26.9508Z" fill="white"/>
<path fill-rule="evenodd" clip-rule="evenodd" d="M43.9877 30.3681C42.7771 30.3395 41.7024 29.2597 41.683 28.0521C41.6769 27.6708 41.8732 27.4192 42.1891 27.4049C42.4887 27.3916 42.6891 27.5982 42.7403 27.9724C42.8517 28.7842 43.3026 29.2444 44.0623 29.319C44.4601 29.3579 44.6677 29.5583 44.6452 29.8824C44.6227 30.2065 44.3885 30.3773 43.9877 30.3681Z" fill="white"/>
<path fill-rule="evenodd" clip-rule="evenodd" d="M44.4838 27.3516C44.4838 27.5734 44.4961 27.7953 44.4838 28.0162C44.4623 28.3434 44.2354 28.5673 43.9491 28.5673C43.8778 28.5661 43.8074 28.5509 43.742 28.5225C43.6765 28.4941 43.6174 28.4531 43.5678 28.4018C43.5182 28.3505 43.4793 28.29 43.4531 28.2237C43.4269 28.1573 43.4141 28.0865 43.4153 28.0152C43.4 27.5602 43.4 27.1031 43.4153 26.6481C43.4131 26.5767 43.4253 26.5057 43.4513 26.4392C43.4772 26.3727 43.5164 26.3121 43.5663 26.2611C43.6163 26.2101 43.676 26.1697 43.742 26.1424C43.8079 26.1151 43.8787 26.1014 43.9501 26.1021C44.2435 26.1021 44.4613 26.3178 44.4838 26.6491C44.4961 26.8822 44.4838 27.1174 44.4838 27.3516Z" fill="white"/>
<path fill-rule="evenodd" clip-rule="evenodd" d="M20.042 29.4355C20.0052 25.7821 17.6698 23.5776 14.7629 23.7422C12.4214 23.8741 10.3467 25.9835 10.2485 28.3322C10.2498 28.4776 10.2433 28.623 10.2291 28.7678C10.1852 29.0745 10.0246 29.279 9.68618 29.279C9.33137 29.279 9.12892 29.0551 9.1463 28.7259C9.16039 28.2042 9.22476 27.6851 9.33853 27.1758C10.041 24.415 12.7005 22.4324 15.3937 22.6297C18.4121 22.8496 20.7383 25.0295 21.0829 27.9805C21.3334 30.1277 20.6207 31.9488 19.0113 33.3618C17.9888 34.2627 17.1964 35.2688 16.8641 36.6072C16.8318 36.7187 16.7915 36.8277 16.7434 36.9334C16.1218 38.4539 14.9571 39.1696 13.4796 38.9416C11.9346 38.7034 10.6739 37.3946 10.5492 35.9109C10.5175 35.5418 10.5717 35.231 10.9939 35.14C11.3334 35.0684 11.5451 35.2923 11.631 35.7862C11.8886 37.2616 13.267 38.2146 14.5338 37.7923C15.2905 37.5398 15.6749 36.9099 15.8528 36.2228C16.2465 34.7044 17.1074 33.549 18.2843 32.5531C19.4612 31.5571 20.0471 30.2657 20.042 29.4355Z" fill="white"/>
<path fill-rule="evenodd" clip-rule="evenodd" d="M12.3394 28.8712C12.5347 29.7761 12.7177 30.6841 12.9293 31.5849C13.0408 32.0583 12.9549 32.3528 12.6165 32.4489C12.278 32.545 11.9764 32.3385 11.8557 31.9142C11.4999 30.6524 11.2013 29.3753 11.3752 28.0532C11.6257 26.1432 13.3803 24.7056 15.2903 24.8068C17.278 24.909 18.8803 26.5031 18.9539 28.4448C18.9692 28.8538 18.7893 29.1084 18.459 29.1381C18.0929 29.1708 17.8854 28.9407 17.8455 28.4622C17.7432 27.1013 16.7054 26.0154 15.4171 25.9182C13.9723 25.8088 12.7586 26.6882 12.4692 28.0726C12.4297 28.3306 12.4072 28.5909 12.4017 28.8518L12.3394 28.8712Z" fill="white"/>
<path fill-rule="evenodd" clip-rule="evenodd" d="M15.2618 32.8814C15.1831 33.4683 14.9807 33.9489 14.4919 34.1902C14.0348 34.4001 13.5511 34.5463 13.0543 34.6248C12.7404 34.6841 12.4888 34.4929 12.4582 34.137C12.4275 33.7812 12.6279 33.5767 12.9592 33.545C14.2434 33.4223 14.1575 33.136 13.9193 32.0338C13.834 31.7113 13.7208 31.3969 13.5809 31.0941C13.4418 30.7557 13.5072 30.4745 13.8385 30.3272C14.1698 30.18 14.4612 30.3088 14.5757 30.6514C14.8201 31.3906 15.0359 32.137 15.2618 32.8814Z" fill="white"/>
<path fill-rule="evenodd" clip-rule="evenodd" d="M37.1656 19.3527C33.3077 25.1462 25.6053 25.0787 22.2505 19.229C25.8364 13.5296 33.2484 13.591 37.1656 19.3527ZM36.4366 19.3609C32.6104 14.3088 26.455 14.2669 22.9765 19.2321C27.274 25.1534 32.6636 23.8108 36.4366 19.3609Z" fill="white"/>
<path d="M37.1656 19.3527L37.0562 19.2801C35.1646 22.1185 32.3528 23.5265 29.592 23.5265C26.7863 23.5265 24.0389 22.0745 22.3691 19.1635L22.2546 19.2289L22.3661 19.2995C24.1237 16.5081 26.7986 15.1257 29.5235 15.1246C32.2904 15.1246 35.1104 16.5561 37.0644 19.4273L37.1728 19.3527L37.2822 19.278C35.2863 16.3424 32.3824 14.8608 29.5235 14.8608C26.7106 14.8608 23.9458 16.2923 22.1462 19.1553L22.1033 19.2218L22.1431 19.2903C23.8558 22.279 26.6984 23.7893 29.5951 23.7893C32.4458 23.7893 35.3476 22.3322 37.2822 19.4253L37.3323 19.3506L37.2822 19.277L37.1656 19.3527ZM36.4366 19.3608L36.5389 19.2821C34.5879 16.7044 32.0245 15.4079 29.5041 15.4079C27.0307 15.4079 24.6084 16.6666 22.8661 19.1563L22.8119 19.233L22.8671 19.3097C23.8896 20.7167 24.9734 21.7218 26.09 22.3772C27.1171 22.9955 28.2919 23.3255 29.4908 23.3322C30.7669 23.3322 32.0266 22.9529 33.2157 22.279C34.4049 21.6052 35.5286 20.6338 36.5348 19.4478L36.6033 19.367L36.5389 19.2831L36.4366 19.3619L36.3344 19.277C35.3446 20.4437 34.2454 21.3936 33.0869 22.049C31.9284 22.7044 30.7147 23.0715 29.4918 23.0715C28.3381 23.0656 27.2075 22.7476 26.2198 22.1512C25.1411 21.5193 24.0808 20.5408 23.0777 19.1584L22.9755 19.2351L23.0838 19.3107C24.7863 16.8813 27.1237 15.6758 29.5061 15.6747C31.9346 15.6747 34.4192 16.9212 36.3313 19.4437L36.4335 19.3639L36.3313 19.279L36.4366 19.3608Z" fill="white"/>
<path fill-rule="evenodd" clip-rule="evenodd" d="M29.6718 22.689C29.0089 22.6833 28.3625 22.4813 27.8142 22.1086C27.2659 21.7358 26.8404 21.2089 26.5914 20.5945C26.3423 19.98 26.2809 19.3056 26.4149 18.6563C26.5489 18.007 26.8723 17.4119 27.3442 16.9463C27.8162 16.4806 28.4155 16.1652 29.0665 16.0399C29.7176 15.9147 30.3911 15.9851 31.0022 16.2423C31.6132 16.4996 32.1344 16.9321 32.4998 17.4853C32.8652 18.0385 33.0585 18.6876 33.0553 19.3505C33.0555 19.7928 32.9677 20.2307 32.7972 20.6387C32.6267 21.0468 32.3767 21.4169 32.0619 21.7275C31.7471 22.0382 31.3737 22.2831 30.9634 22.4482C30.5531 22.6132 30.1141 22.6951 29.6718 22.689ZM26.9203 19.3311C26.9187 19.8803 27.0797 20.4177 27.3829 20.8756C27.6861 21.3335 28.118 21.6915 28.6242 21.9045C29.1304 22.1174 29.6884 22.1759 30.2277 22.0725C30.7671 21.969 31.2638 21.7083 31.6553 21.3232C32.0468 20.9381 32.3157 20.4457 32.428 19.9081C32.5402 19.3705 32.491 18.8117 32.2864 18.3021C32.0817 17.7924 31.7309 17.3547 31.278 17.044C30.8252 16.7333 30.2905 16.5635 29.7414 16.5561C29.3733 16.5506 29.0078 16.6184 28.6661 16.7554C28.3244 16.8923 28.0133 17.0958 27.7508 17.354C27.4884 17.6121 27.2798 17.9198 27.1373 18.2592C26.9947 18.5986 26.9209 18.963 26.9203 19.3311Z" fill="white"/>
<path d="M29.6718 22.6891V22.5572C29.2505 22.5555 28.8337 22.4707 28.4453 22.3077C28.0568 22.1448 27.7043 21.9068 27.4079 21.6074C27.1115 21.3081 26.877 20.9533 26.7179 20.5632C26.5588 20.1732 26.4781 19.7556 26.4806 19.3343V19.2965C26.4902 18.4497 26.833 17.6408 27.4347 17.0449C28.0363 16.449 28.8485 16.114 29.6953 16.1124H29.7045C30.5577 16.1165 31.3747 16.4576 31.9775 17.0615C32.5803 17.6654 32.9199 18.4831 32.9223 19.3364V19.3507C32.9201 20.2031 32.5795 21.0198 31.9753 21.6211C31.3711 22.2224 30.5528 22.5591 29.7004 22.5572H29.6718V22.821H29.7014C30.1581 22.8222 30.6106 22.7334 31.033 22.5597C31.4554 22.386 31.8394 22.1308 32.1631 21.8086C32.4868 21.4864 32.7438 21.1036 32.9195 20.682C33.0952 20.2605 33.1862 19.8084 33.1871 19.3517V19.3374C33.1852 18.4139 32.818 17.5287 32.1657 16.8751C31.5134 16.2214 30.629 15.8524 29.7055 15.8486H29.6953C28.7794 15.8507 27.9011 16.2133 27.2505 16.858C26.5999 17.5027 26.2293 18.3776 26.2188 19.2934V19.3353C26.2164 19.7911 26.3038 20.2428 26.476 20.6647C26.6483 21.0866 26.902 21.4705 27.2227 21.7943C27.5434 22.1181 27.9247 22.3755 28.345 22.5519C28.7652 22.7282 29.216 22.82 29.6718 22.822V22.6891ZM26.9202 19.3313H26.7883V19.3476C26.7904 20.1115 27.0925 20.844 27.6296 21.3872C28.1667 21.9304 28.8957 22.2408 29.6595 22.2515H29.7065C30.4765 22.2477 31.214 21.9405 31.759 21.3965C32.304 20.8525 32.6125 20.1156 32.6176 19.3456V19.3405C32.6163 18.5747 32.3142 17.84 31.7764 17.2949C31.2385 16.7498 30.508 16.4379 29.7423 16.4263H29.7035C28.9322 16.4274 28.1928 16.7336 27.6466 17.2781C27.1004 17.8226 26.7918 18.5611 26.7883 19.3323H27.0521C27.0559 18.6309 27.3367 17.9595 27.8333 17.4642C28.3299 16.9689 29.0021 16.69 29.7035 16.6881H29.7392C30.4353 16.6996 31.099 16.9837 31.5879 17.4792C32.0767 17.9748 32.3517 18.6423 32.3538 19.3384V19.3435C32.3489 20.0435 32.0682 20.7132 31.5726 21.2075C31.077 21.7018 30.4065 21.9807 29.7065 21.9836H29.6636C28.969 21.974 28.3061 21.6918 27.8176 21.198C27.3291 20.7041 27.0542 20.0381 27.0521 19.3435V19.3292L26.9202 19.3313Z" fill="white"/>
<path fill-rule="evenodd" clip-rule="evenodd" d="M28.0387 19.1648C28.007 20.2282 28.6522 20.9767 29.5909 21.0309C29.8142 21.0457 30.0383 21.0163 30.2502 20.9443C30.4622 20.8723 30.6578 20.7591 30.8259 20.6113C30.9939 20.4634 31.1312 20.2838 31.2296 20.0828C31.3281 19.8818 31.3859 19.6633 31.3997 19.4399C31.4162 19.2299 31.3907 19.0188 31.3247 18.8188C31.2586 18.6188 31.1533 18.434 31.015 18.2751C30.8766 18.1163 30.708 17.9867 30.5189 17.8938C30.3299 17.801 30.1242 17.7468 29.914 17.7344C31.2493 20.1434 28.7729 20.3479 28.0387 19.1648Z" fill="white"/>
<path fill-rule="evenodd" clip-rule="evenodd" d="M35.9141 11.5767C36.046 11.6871 36.2291 11.7658 36.2536 11.8834C36.2714 11.9682 36.2715 12.0557 36.2539 12.1405C36.2363 12.2253 36.2014 12.3056 36.1513 12.3763C35.7423 12.8272 35.3006 13.2464 34.8702 13.6769C34.7127 13.8343 34.5634 13.9969 34.3967 14.1462C34.1871 14.3374 33.9131 14.3354 33.7475 14.1554C33.5818 13.9754 33.6166 13.7464 33.8221 13.5419C34.3875 12.9724 34.953 12.4028 35.5256 11.8415C35.6467 11.7415 35.7767 11.6528 35.9141 11.5767Z" fill="white"/>
<path d="M35.9143 11.5768L35.8857 11.6106C35.9562 11.6689 36.036 11.7128 36.0984 11.7629C36.1266 11.7825 36.153 11.8048 36.1771 11.8294C36.1933 11.8459 36.205 11.8663 36.2108 11.8887C36.2194 11.927 36.2235 11.9661 36.2231 12.0053C36.2272 12.1256 36.1912 12.2439 36.1209 12.3417C35.7119 12.7916 35.2722 13.2098 34.8417 13.6413C34.6832 13.7987 34.535 13.9613 34.3693 14.1096C34.2847 14.1908 34.1727 14.2375 34.0554 14.2404C34.004 14.2409 33.9532 14.2305 33.9061 14.2098C33.8591 14.1892 33.8169 14.1589 33.7824 14.1208C33.7257 14.0611 33.6936 13.9823 33.6924 13.8999C33.7008 13.7716 33.7596 13.6517 33.856 13.5666C34.4215 12.9981 34.9859 12.4286 35.5585 11.8662C35.6774 11.7712 35.8043 11.6867 35.9378 11.6136L35.9133 11.5768L35.8887 11.54C35.7506 11.6162 35.6196 11.7045 35.4971 11.8038C34.9245 12.3662 34.3591 12.9357 33.7937 13.5042C33.6812 13.6063 33.6133 13.7484 33.6045 13.8999C33.6052 14.0044 33.6458 14.1046 33.718 14.1801C33.7605 14.2273 33.8126 14.2649 33.8708 14.2905C33.929 14.316 33.9919 14.3289 34.0554 14.3284C34.1948 14.3256 34.328 14.2705 34.4286 14.174C34.5943 14.0237 34.7466 13.8601 34.9031 13.7026C35.3335 13.2732 35.7773 12.8539 36.1863 12.3999C36.2714 12.2864 36.3151 12.1471 36.31 12.0053C36.3101 11.9596 36.3053 11.914 36.2957 11.8693C36.2867 11.8309 36.2676 11.7956 36.2405 11.767C36.1973 11.7232 36.1492 11.6845 36.0973 11.6515C36.0442 11.6157 35.9879 11.5789 35.9409 11.54L35.9164 11.5186L35.8887 11.537L35.9143 11.5768Z" fill="white"/>
<path fill-rule="evenodd" clip-rule="evenodd" d="M24.2015 13.9061C24.1207 14.0084 24.0491 14.174 23.9305 14.2129C23.8119 14.2517 23.5726 14.2558 23.4827 14.172C22.8416 13.5667 22.2199 12.945 21.6043 12.31C21.5678 12.2702 21.54 12.2233 21.5225 12.1722C21.505 12.1211 21.4983 12.067 21.5028 12.0132C21.5073 11.9594 21.523 11.9071 21.5487 11.8596C21.5745 11.8121 21.6098 11.7705 21.6524 11.7374C21.8313 11.582 22.0542 11.5891 22.2516 11.7824C22.8416 12.3581 23.4244 12.9399 24.0093 13.5206C24.0454 13.5531 24.0761 13.591 24.1003 13.6331C24.133 13.7088 24.1544 13.7824 24.2015 13.9061Z" fill="white"/>
<path d="M24.2014 13.9059L24.1677 13.8783C24.1237 13.9325 24.0859 14 24.044 14.0573C24.0136 14.1089 23.9688 14.1504 23.9151 14.1769C23.8581 14.196 23.7983 14.2054 23.7382 14.2045C23.6931 14.2049 23.6481 14.1997 23.6043 14.1892C23.5708 14.1816 23.5396 14.1662 23.5133 14.1442C22.8722 13.5399 22.2505 12.9172 21.636 12.2843C21.6067 12.2553 21.5835 12.2207 21.5679 12.1826C21.5523 12.1445 21.5445 12.1036 21.545 12.0624C21.546 12.0076 21.5587 11.9537 21.5822 11.9041C21.6056 11.8546 21.6393 11.8106 21.681 11.7751C21.7459 11.7128 21.8314 11.6764 21.9213 11.6728C21.9781 11.6756 22.0338 11.6895 22.0852 11.7139C22.1367 11.7383 22.1827 11.7727 22.2208 11.8149C22.8098 12.3896 23.3936 12.9714 23.9785 13.5532C24.011 13.5827 24.0386 13.6173 24.0603 13.6554C24.092 13.7188 24.1135 13.7924 24.1626 13.9192L24.2035 13.9039L24.2444 13.8886C24.1983 13.7648 24.1769 13.6902 24.1421 13.6166C24.1151 13.5697 24.0805 13.5275 24.0399 13.4918C23.455 12.9121 22.8722 12.3292 22.2822 11.7536C22.1887 11.6525 22.0589 11.5925 21.9213 11.5869C21.8106 11.5894 21.7048 11.6323 21.6237 11.7076C21.5725 11.7512 21.5312 11.8052 21.5024 11.866C21.4737 11.9268 21.4582 11.9931 21.457 12.0603C21.4567 12.1128 21.4667 12.1649 21.4866 12.2135C21.5064 12.2621 21.5356 12.3063 21.5726 12.3436C22.1861 12.9755 22.8108 13.6012 23.4529 14.2065C23.4901 14.2383 23.5342 14.2607 23.5818 14.272C23.7021 14.3007 23.8281 14.2957 23.9458 14.2577C24.0161 14.2251 24.0751 14.1724 24.1155 14.1063C24.1605 14.044 24.1983 13.9775 24.2352 13.9315L24.2515 13.9121L24.2423 13.8886L24.2014 13.9059Z" fill="white"/>
<path fill-rule="evenodd" clip-rule="evenodd" d="M29.2996 11.1961C29.2996 11.5928 29.2996 11.9896 29.2996 12.3873C29.2996 12.6941 29.1411 12.8669 28.8794 12.8679C28.6176 12.8689 28.4704 12.6982 28.4652 12.3832C28.4605 11.5796 28.4605 10.7759 28.4652 9.97219C28.4652 9.66544 28.638 9.48037 28.8834 9.48344C29.1288 9.4865 29.2924 9.67464 29.2986 9.97628C29.3027 10.3832 29.2996 10.7892 29.2996 11.1961Z" fill="white"/>
<path d="M29.2996 11.1964H29.2557C29.2557 11.4346 29.2557 11.6729 29.2557 11.9121C29.2557 12.0717 29.2557 12.2301 29.2557 12.3886C29.2622 12.5065 29.2259 12.6227 29.1534 12.7158C29.1186 12.7532 29.076 12.7824 29.0287 12.8015C28.9813 12.8206 28.9304 12.829 28.8794 12.8263C28.8292 12.8293 28.779 12.8211 28.7325 12.8022C28.6859 12.7832 28.6442 12.7541 28.6105 12.7169C28.5381 12.6217 28.5019 12.5039 28.5082 12.3845C28.5082 11.9929 28.5082 11.6003 28.5082 11.2076C28.5082 10.7987 28.5099 10.3897 28.5133 9.98065C28.508 9.86203 28.5442 9.74526 28.6156 9.65039C28.6485 9.61281 28.6893 9.58291 28.7351 9.56277C28.7808 9.54263 28.8304 9.53275 28.8804 9.53382C28.931 9.53283 28.9811 9.54304 29.0272 9.56373C29.0734 9.58441 29.1144 9.61505 29.1473 9.65346C29.2189 9.74861 29.2551 9.86578 29.2495 9.98474C29.2495 10.1473 29.2495 10.3119 29.2495 10.4755C29.2495 10.7179 29.2495 10.9602 29.2495 11.2036H29.3395C29.3395 10.9612 29.3395 10.7179 29.3395 10.4755C29.3395 10.3109 29.3395 10.1473 29.3395 9.98372C29.3441 9.84366 29.2992 9.70645 29.2127 9.5962C29.1719 9.5482 29.1209 9.5099 29.0634 9.48408C29.0059 9.45826 28.9434 9.44556 28.8804 9.44691H28.8743C28.8117 9.44534 28.7495 9.45763 28.6922 9.48291C28.635 9.50819 28.584 9.54583 28.543 9.59313C28.459 9.70141 28.4153 9.83551 28.4193 9.97247C28.4193 10.3815 28.4193 10.7925 28.4193 11.2056C28.4193 11.5982 28.4193 11.9909 28.4193 12.3835C28.412 12.5236 28.4547 12.6617 28.5399 12.7731C28.5821 12.8196 28.634 12.8562 28.692 12.8802C28.75 12.9042 28.8126 12.9152 28.8753 12.9121C28.9388 12.9148 29.0021 12.9036 29.0609 12.8795C29.1197 12.8553 29.1725 12.8186 29.2158 12.7721C29.3019 12.663 29.3459 12.5265 29.3395 12.3876C29.3395 12.2281 29.3395 12.0696 29.3395 11.9101C29.3395 11.6719 29.3395 11.4346 29.3395 11.1944L29.2996 11.1964Z" fill="white"/>
<path fill-rule="evenodd" clip-rule="evenodd" d="M31.7579 37.5009C32.5309 37.4927 33.3366 37.4538 33.717 36.5857C34.0973 35.7177 33.717 35.0172 33.0799 34.4334C32.1495 33.5858 31.1965 32.7626 30.2701 31.9109C28.9307 30.6747 28.1975 29.141 28.1311 27.3179C28.1229 27.0909 28.3632 26.8547 28.4889 26.6226C28.6147 26.8373 28.8386 27.0459 28.8519 27.2667C28.9542 29.0571 29.7231 30.4886 31.0707 31.6512C32.0043 32.4569 32.9112 33.2933 33.8039 34.1451C34.3765 34.6911 34.6771 35.372 34.583 36.19C34.4061 37.7177 32.5073 38.7688 31.0554 38.1328C30.9276 38.0765 30.7691 37.8751 30.7844 37.7637C30.7998 37.6522 30.9889 37.4866 31.1321 37.4569C31.3192 37.414 31.5298 37.4784 31.7579 37.5009Z" fill="white"/>
<path d="M31.7577 37.5012V37.5891C32.1453 37.5891 32.5492 37.5738 32.9121 37.449C33.098 37.3877 33.2695 37.2893 33.4162 37.1596C33.5809 37.01 33.7108 36.8261 33.7966 36.6208C33.8994 36.396 33.9541 36.1522 33.9571 35.905C33.9544 35.6122 33.874 35.3253 33.724 35.0738C33.5666 34.8107 33.3689 34.5741 33.1381 34.3723C32.2066 33.5226 31.2537 32.6995 30.3283 31.8488C28.999 30.6279 28.2833 29.1187 28.2179 27.3181V27.3089C28.2192 27.2623 28.23 27.2164 28.2496 27.174C28.289 27.0889 28.337 27.008 28.3927 26.9326C28.4544 26.8474 28.5118 26.759 28.5645 26.6678L28.4878 26.6259L28.4111 26.6699C28.4796 26.7864 28.5686 26.8928 28.6391 26.995C28.7042 27.0763 28.7469 27.1733 28.7628 27.2762C28.8702 29.0881 29.6494 30.5482 31.0123 31.722C31.9449 32.5257 32.8528 33.358 33.7434 34.2118C34.2322 34.6791 34.5113 35.2394 34.5123 35.8999C34.5124 35.9936 34.5069 36.0871 34.496 36.1801C34.4133 36.762 34.1034 37.2874 33.634 37.6412C33.163 38.017 32.58 38.2246 31.9776 38.2312C31.6732 38.2328 31.3717 38.1715 31.0921 38.0513C31.0341 38.0198 30.9835 37.9762 30.9438 37.9234C30.9228 37.8964 30.9047 37.8673 30.8896 37.8365C30.8804 37.8183 30.8745 37.7986 30.8723 37.7783C30.8778 37.7576 30.8871 37.7382 30.8999 37.721C30.9323 37.6776 30.9717 37.64 31.0164 37.6095C31.0575 37.5801 31.1036 37.5583 31.1524 37.5451C31.1897 37.5372 31.2278 37.5334 31.2659 37.5339C31.4019 37.5339 31.5665 37.5748 31.7506 37.5932H31.7598V37.5052L31.768 37.4183C31.6013 37.402 31.4357 37.359 31.2669 37.358C31.2161 37.3575 31.1653 37.3627 31.1156 37.3733C31.02 37.3982 30.9316 37.4455 30.8579 37.5114C30.8192 37.5432 30.7848 37.58 30.7557 37.6208C30.7263 37.6599 30.7066 37.7055 30.6984 37.7537C30.6984 37.7639 30.6984 37.7742 30.6984 37.7834C30.7003 37.8295 30.7118 37.8748 30.7322 37.9163C30.7638 37.9809 30.8052 38.0402 30.8549 38.0922C30.9028 38.144 30.96 38.1863 31.0236 38.2169C31.3254 38.3473 31.6509 38.4138 31.9796 38.4122C32.6217 38.4055 33.2432 38.1845 33.7455 37.7844C33.9964 37.5935 34.2072 37.355 34.3658 37.0825C34.5245 36.81 34.6278 36.5089 34.6698 36.1965C34.6819 36.0967 34.6881 35.9963 34.6882 35.8958C34.6882 35.1801 34.3815 34.5717 33.8651 34.0809C32.9725 33.2281 32.0624 32.3917 31.1279 31.584C29.7986 30.4337 29.0451 29.0277 28.9397 27.2609C28.9226 27.1261 28.8693 26.9985 28.7853 26.8917C28.7087 26.7803 28.6217 26.676 28.5645 26.5768L28.4847 26.4429L28.4111 26.5799C28.3549 26.6821 28.2669 26.7987 28.1892 26.9173C28.1502 26.9761 28.116 27.038 28.087 27.1024C28.0583 27.1668 28.043 27.2364 28.042 27.3069V27.3222C28.1085 29.1627 28.8518 30.7292 30.2097 31.9766C31.1371 32.8294 32.0911 33.6535 33.0205 34.5001C33.2374 34.69 33.4233 34.9125 33.5716 35.1596C33.7065 35.3843 33.7788 35.641 33.7813 35.903C33.7787 36.1269 33.7292 36.3477 33.6361 36.5513C33.5599 36.7332 33.4451 36.8965 33.2997 37.0298C33.0998 37.1988 32.8577 37.3102 32.5993 37.3519C32.3205 37.398 32.0382 37.4188 31.7557 37.4142V37.5022L31.7639 37.4153L31.7577 37.5012Z" fill="white"/>
<path fill-rule="evenodd" clip-rule="evenodd" d="M27.1443 38.2904C26.1331 38.3058 25.2711 37.7986 24.9971 37.1043C24.6392 36.2127 24.9695 35.4254 25.449 34.6871C25.5155 34.5849 25.7415 34.5849 25.8938 34.543C25.9429 34.7168 26.0554 34.9008 26.0267 35.0614C25.9889 35.2751 25.8274 35.4642 25.7456 35.6749C25.5411 36.1923 25.4552 36.7127 25.9214 37.1432C26.3877 37.5736 26.9695 37.7045 27.5267 37.3988C28.084 37.0931 28.5175 36.6105 29.0728 36.3364C29.628 36.0624 30.2599 35.9203 30.8795 35.7873C30.9889 35.7628 31.1668 36.0471 31.3141 36.1882C31.1498 36.2982 30.9791 36.3982 30.8028 36.4878C30.2916 36.7086 29.719 36.8323 29.2742 37.1422C28.5451 37.6442 27.8959 38.2526 27.1443 38.2904Z" fill="white"/>
<path d="M27.1444 38.2904V38.2025H27.1004C26.653 38.207 26.2122 38.0949 25.8213 37.8774C25.4894 37.7 25.2269 37.4162 25.0759 37.0716C24.9807 36.8407 24.9314 36.5934 24.9307 36.3436C24.9307 35.7812 25.1842 35.2506 25.5196 34.7352C25.5298 34.7228 25.5432 34.7136 25.5585 34.7086C25.6093 34.6894 25.6621 34.676 25.7159 34.6688C25.7831 34.659 25.8497 34.6453 25.9153 34.6279L25.8908 34.543L25.8059 34.5675C25.8305 34.6524 25.8662 34.7332 25.8939 34.8088C25.9203 34.8723 25.9362 34.9396 25.9409 35.0082C25.9419 35.0208 25.9419 35.0335 25.9409 35.0461C25.9187 35.1455 25.88 35.2406 25.8264 35.3273C25.766 35.4288 25.712 35.5339 25.6648 35.6422C25.5633 35.8796 25.5062 36.1336 25.4961 36.3917C25.4939 36.5373 25.5221 36.6819 25.5789 36.816C25.6446 36.9651 25.7412 37.0985 25.8622 37.2076C26.1386 37.4832 26.5098 37.643 26.9 37.6545C27.1348 37.6525 27.3652 37.591 27.5697 37.4755C27.8447 37.3137 28.1063 37.1301 28.3519 36.9264C28.5875 36.7306 28.8424 36.5593 29.1127 36.4152C29.6587 36.1453 30.2865 36.0062 30.9031 35.8722L30.8979 35.8477V35.8722H30.9031L30.8979 35.8477V35.859V35.8722C30.9185 35.8814 30.9372 35.8942 30.9532 35.9101C31.0051 35.9599 31.0536 36.0132 31.0984 36.0696C31.149 36.1327 31.2029 36.1931 31.2599 36.2506L31.3213 36.1872L31.2763 36.1115C31.114 36.2199 30.9454 36.3182 30.7712 36.406C30.5217 36.5144 30.2517 36.6003 29.9869 36.6984C29.7187 36.7892 29.4631 36.9136 29.2262 37.0686C28.8611 37.3232 28.5176 37.6013 28.1771 37.817C27.8366 38.0328 27.5002 38.1861 27.1474 38.2035V38.2915V38.3794C27.5462 38.359 27.9102 38.1892 28.263 37.9704C28.6157 37.7516 28.9603 37.4673 29.3192 37.2178C29.5423 37.0719 29.7827 36.9544 30.035 36.8682C30.2957 36.772 30.5677 36.6851 30.8284 36.5727C31.0099 36.4817 31.1855 36.3792 31.354 36.2659L31.4562 36.2076L31.3734 36.1268C31.31 36.0665 31.2323 35.9663 31.1556 35.8804C31.1198 35.838 31.0805 35.7986 31.038 35.7628C31.018 35.7464 30.9964 35.732 30.9736 35.7199C30.9479 35.707 30.9196 35.7 30.8908 35.6994C30.8799 35.6979 30.8689 35.6979 30.8581 35.6994C30.2446 35.8354 29.6004 35.9745 29.0278 36.2567C28.7464 36.4062 28.4811 36.5843 28.2364 36.7884C27.9984 36.9858 27.745 37.164 27.4787 37.3211C27.2999 37.4223 27.0983 37.4765 26.8928 37.4786C26.5461 37.4677 26.2167 37.3243 25.9726 37.0778C25.8695 36.9858 25.7872 36.8728 25.7313 36.7465C25.6847 36.634 25.6611 36.5134 25.6617 36.3917C25.6721 36.1556 25.7255 35.9235 25.8192 35.7066C25.8631 35.605 25.914 35.5066 25.9716 35.4121C26.034 35.3083 26.0792 35.195 26.1055 35.0767C26.1092 35.0541 26.1109 35.0312 26.1106 35.0082C26.1071 34.9189 26.0877 34.831 26.0534 34.7485C26.0227 34.6667 25.99 34.589 25.9695 34.5195L25.945 34.4336L25.8632 34.4581C25.7988 34.4776 25.7057 34.4888 25.6157 34.5072C25.5704 34.5155 25.5262 34.5289 25.4838 34.5471C25.4379 34.5657 25.3985 34.5973 25.3703 34.6381C25.0278 35.1647 24.7568 35.726 24.7568 36.3426C24.7576 36.6148 24.8111 36.8842 24.9143 37.136C25.0796 37.5169 25.3675 37.8315 25.7323 38.0297C26.1499 38.2618 26.6206 38.3816 27.0983 38.3774H27.1474L27.1444 38.2904Z" fill="white"/>
<path fill-rule="evenodd" clip-rule="evenodd" d="M29.4835 43.6942C31.4324 42.2381 32.4672 42.2882 34.5674 43.37C35.775 43.9927 37.184 44.2208 38.4989 44.639C38.7954 44.733 39.276 44.8383 39.3169 45.0163C39.3772 45.2964 39.2218 45.7248 39.0101 45.9488C33.3107 51.9253 25.7177 51.9529 19.9713 45.9334C19.7668 45.7228 19.5551 45.2596 19.6523 45.095C19.7934 44.8547 20.2013 44.7422 20.5173 44.641C21.8036 44.232 23.2187 44.0561 24.3639 43.4038C26.2024 42.3557 27.822 42.2289 29.4835 43.6942ZM37.4518 45.3762C36.6175 45.0991 36.0285 44.9447 35.4754 44.7085C34.9229 44.4609 34.3867 44.1784 33.87 43.8629C32.46 43.0326 31.3261 43.0889 30.1359 44.1891C29.641 44.6471 29.3476 44.6328 28.8608 44.1839C27.7433 43.1533 26.6298 43.0643 25.3578 43.7238C24.2187 44.3138 23.0521 44.8486 21.8741 45.4242C26.9529 46.8486 32.0725 47.0347 37.4518 45.3762ZM21.2831 46.0531C25.8782 50.8005 32.9304 50.9324 37.6942 46.0929C32.2024 47.8179 26.7831 47.6032 21.2831 46.0531Z" fill="white"/>
<path d="M29.4838 43.6941L29.536 43.7646C29.959 43.4346 30.4184 43.154 30.9051 42.9282C31.2784 42.7586 31.6832 42.669 32.0932 42.6654C32.7957 42.6654 33.538 42.9385 34.5268 43.4477C35.7538 44.0785 37.1669 44.3066 38.4726 44.7227C38.6249 44.7708 38.8172 44.8198 38.9736 44.8781C39.0405 44.9013 39.1046 44.9318 39.1648 44.9691C39.1834 44.9803 39.2002 44.9941 39.2149 45.01C39.2219 45.0173 39.2271 45.026 39.2303 45.0356C39.2379 45.0733 39.2417 45.1117 39.2415 45.1501C39.2377 45.2862 39.2085 45.4204 39.1556 45.5458C39.1065 45.6717 39.0352 45.7878 38.945 45.8884C36.1065 48.8638 32.8049 50.3515 29.5012 50.3515C26.1975 50.3515 22.8908 48.8669 20.0329 45.873C19.9442 45.7745 19.8707 45.6631 19.8151 45.5427C19.7857 45.482 19.7611 45.4191 19.7415 45.3546C19.7247 45.3055 19.7158 45.2541 19.7149 45.2023C19.7132 45.1805 19.7171 45.1587 19.7262 45.1389C19.8085 45.0272 19.9225 44.9427 20.0534 44.8965C20.213 44.8305 20.3762 44.7731 20.5421 44.7248C21.8182 44.3158 23.2384 44.143 24.4051 43.4804C25.2896 42.9773 26.1137 42.691 26.9102 42.692C27.7579 42.692 28.5789 43.0121 29.4255 43.7595L29.4787 43.8076L29.536 43.7646L29.4838 43.6941L29.5421 43.6286C28.674 42.8597 27.8039 42.5151 26.9102 42.5162C26.0707 42.5162 25.218 42.8158 24.3182 43.327C23.1934 43.9681 21.7865 44.145 20.4889 44.554C20.3155 44.6042 20.1449 44.6636 19.9777 44.7319C19.8123 44.7925 19.6696 44.9025 19.5687 45.0468C19.5433 45.0935 19.531 45.1461 19.5329 45.1992C19.5422 45.3447 19.5823 45.4865 19.6505 45.6153C19.714 45.7524 19.7982 45.879 19.9 45.9906C22.7834 49.0131 26.1372 50.5243 29.4951 50.5243C32.853 50.5243 36.2016 49.01 39.0656 46.0059C39.1712 45.8898 39.2547 45.7553 39.3121 45.6092C39.3751 45.463 39.4098 45.3062 39.4143 45.147C39.4144 45.0959 39.4093 45.0448 39.399 44.9947C39.3897 44.9566 39.3711 44.9215 39.3448 44.8924C39.2987 44.8424 39.2431 44.8021 39.1812 44.7738C39.0748 44.7241 38.9647 44.6827 38.8519 44.6501C38.7354 44.6143 38.6178 44.5816 38.5227 44.5479C37.1996 44.1276 35.7947 43.8986 34.6045 43.2841C33.6076 42.7728 32.8407 42.4834 32.0902 42.4824C31.6561 42.4863 31.2277 42.5811 30.8325 42.7605C30.3333 42.9911 29.8622 43.2782 29.4286 43.6164L29.4808 43.6869L29.539 43.6215L29.4838 43.6941ZM37.4521 45.3761L37.4797 45.2922C36.6423 45.0141 36.0544 44.8597 35.5094 44.6266C34.9605 44.3808 34.4277 44.1004 33.9143 43.7871C33.2712 43.4088 32.6771 43.2074 32.1024 43.2074C31.7491 43.2087 31.4003 43.2865 31.0799 43.4354C30.7127 43.6105 30.3758 43.8432 30.082 44.1245C29.9864 44.2175 29.8796 44.2983 29.764 44.3648C29.6865 44.4136 29.5968 44.4395 29.5053 44.4395C29.4138 44.4395 29.3241 44.4136 29.2466 44.3648C29.1303 44.2967 29.0225 44.215 28.9256 44.1215C28.265 43.508 27.5963 43.2166 26.8867 43.2176C26.3385 43.2324 25.8021 43.3798 25.3233 43.647C24.1863 44.237 23.0206 44.7718 21.8468 45.3464L21.6423 45.4487L21.8652 45.5121C24.4664 46.2411 27.0799 46.646 29.7384 46.646C32.3634 46.6406 34.9726 46.2407 37.4787 45.4599L37.7405 45.3791L37.4797 45.2922L37.4521 45.3761L37.4266 45.2912C34.9315 46.0684 32.3334 46.4648 29.72 46.4671C27.083 46.4671 24.4859 46.0652 21.8979 45.3423L21.8744 45.4272L21.9133 45.5059C23.0902 44.9333 24.2579 44.3965 25.399 43.8045C25.9215 43.5335 26.4112 43.3955 26.8816 43.3955C27.536 43.3955 28.1617 43.6634 28.8018 44.2524C28.9089 44.3563 29.0285 44.4466 29.1577 44.5213C29.2608 44.5838 29.3791 44.6169 29.4997 44.6169C29.6203 44.6169 29.7386 44.5838 29.8417 44.5213C29.9703 44.4474 30.0891 44.3577 30.1955 44.2544C30.4757 43.9856 30.7971 43.7633 31.1474 43.5959C31.4467 43.457 31.7725 43.3848 32.1024 43.3843C32.6352 43.3843 33.1986 43.5704 33.8253 43.9395C34.3452 44.2569 34.8848 44.5407 35.4409 44.7892C36.0022 45.0295 36.5922 45.1839 37.4245 45.4599L37.4521 45.3771L37.4266 45.2922L37.4521 45.3761ZM21.2834 46.053L21.22 46.1133C23.5534 48.5254 26.5206 49.7564 29.5022 49.7554C32.4327 49.7554 35.3785 48.5683 37.7548 46.1542L38.0012 45.9037L37.6658 46.0059C35.1234 46.8077 32.4728 47.2143 29.8069 47.2115C26.9818 47.2115 24.1556 46.7687 21.3049 45.965L20.991 45.8761L21.218 46.1102L21.2814 46.0499L21.2568 46.1338C24.1198 46.9415 26.9634 47.3873 29.8069 47.3873C32.4924 47.3916 35.1626 46.9833 37.7241 46.1767L37.6986 46.0929L37.6352 46.0315C35.2906 48.4129 32.3918 49.5796 29.5084 49.5806C26.5738 49.5806 23.6536 48.3699 21.3499 45.9916L21.2875 46.053L21.263 46.1368L21.2834 46.053Z" fill="white"/>
<path d="M12.4315 53.9549L12.8108 53.8312L2.47445 22.0275L29.3016 2.54081L56.1288 22.0255L45.8824 53.5562H12.4315V53.9549L12.8108 53.8312L12.4315 53.9549V54.3527H46.4612L57.0654 21.7208L29.3016 1.55615L1.53784 21.7228L12.1421 54.3527H12.4315V53.9549Z" fill="white"/>
<path d="M31.3497 2.04499C31.3497 2.44945 31.2298 2.84483 31.0051 3.18113C30.7804 3.51742 30.461 3.77953 30.0873 3.93431C29.7137 4.08909 29.3025 4.12959 28.9058 4.05069C28.5091 3.97178 28.1447 3.77701 27.8587 3.49102C27.5727 3.20502 27.378 2.84064 27.2991 2.44395C27.2202 2.04726 27.2607 1.63608 27.4154 1.26241C27.5702 0.888733 27.8323 0.569349 28.1686 0.344643C28.5049 0.119937 28.9003 0 29.3048 0C29.8471 0 30.3673 0.215454 30.7508 0.598964C31.1343 0.982474 31.3497 1.50262 31.3497 2.04499Z" fill="white"/>
<path d="M58.6095 21.5982C58.6095 22.0027 58.4896 22.3981 58.2649 22.7343C58.0402 23.0706 57.7208 23.3328 57.3471 23.4875C56.9734 23.6423 56.5623 23.6828 56.1656 23.6039C55.7689 23.525 55.4045 23.3302 55.1185 23.0442C54.8325 22.7582 54.6377 22.3939 54.5588 21.9972C54.4799 21.6005 54.5204 21.1893 54.6752 20.8156C54.83 20.442 55.0921 20.1226 55.4284 19.8979C55.7647 19.6732 56.1601 19.5532 56.5645 19.5532C57.1069 19.5532 57.627 19.7687 58.0106 20.1522C58.3941 20.5357 58.6095 21.0558 58.6095 21.5982Z" fill="white"/>
<path d="M48.2833 53.9517C48.2833 54.3562 48.1634 54.7516 47.9387 55.0879C47.714 55.4242 47.3946 55.6863 47.0209 55.8411C46.6473 55.9958 46.2361 56.0363 45.8394 55.9574C45.4427 55.8785 45.0783 55.6837 44.7923 55.3978C44.5063 55.1118 44.3116 54.7474 44.2327 54.3507C44.1537 53.954 44.1942 53.5428 44.349 53.1691C44.5038 52.7955 44.7659 52.4761 45.1022 52.2514C45.4385 52.0267 45.8339 51.9067 46.2383 51.9067C46.7807 51.9067 47.3009 52.1222 47.6844 52.5057C48.0679 52.8892 48.2833 53.4094 48.2833 53.9517Z" fill="white"/>
<path d="M11.8171 55.9999C12.9482 55.9999 13.8652 55.083 13.8652 53.9519C13.8652 52.8208 12.9482 51.9038 11.8171 51.9038C10.686 51.9038 9.76904 52.8208 9.76904 53.9519C9.76904 55.083 10.686 55.9999 11.8171 55.9999Z" fill="white"/>
<path d="M4.08998 21.8731C4.08998 22.2776 3.97004 22.673 3.74534 23.0093C3.52063 23.3455 3.20125 23.6077 2.82757 23.7624C2.4539 23.9172 2.04272 23.9577 1.64603 23.8788C1.24934 23.7999 0.884962 23.6051 0.598965 23.3191C0.312968 23.0331 0.118201 22.6688 0.0392948 22.2721C-0.0396116 21.8754 0.000886061 21.4642 0.155667 21.0905C0.310447 20.7169 0.572558 20.3975 0.908855 20.1728C1.24515 19.9481 1.64053 19.8281 2.04499 19.8281C2.58736 19.8281 3.10751 20.0436 3.49102 20.4271C3.87453 20.8106 4.08998 21.3307 4.08998 21.8731Z" fill="white"/>
<path d="M75.152 28.24C75.152 26.256 75.4827 24.432 76.144 22.768C76.8053 21.0827 77.7333 19.6427 78.928 18.448C80.144 17.2533 81.5947 16.3253 83.28 15.664C84.9653 14.9813 86.8213 14.64 88.848 14.64C90.576 14.64 92.2507 14.8853 93.872 15.376C95.4933 15.8453 97.0293 16.592 98.48 17.616L97.2 22.416L96.88 22.352C96.6027 21.3067 96.2507 20.336 95.824 19.44C95.3973 18.5227 94.8747 17.7333 94.256 17.072C93.6373 16.4107 92.912 15.8987 92.08 15.536C91.248 15.152 90.288 14.96 89.2 14.96C87.7707 14.96 86.512 15.216 85.424 15.728C84.3573 16.24 83.4293 16.944 82.64 17.84C82.2987 18.9707 82.2987 20.0373 82.64 21.04C82.9813 22.0427 83.5253 22.9387 84.272 23.728C85.0187 24.496 85.9147 25.1253 86.96 25.616C88.0267 26.1067 89.1147 26.416 90.224 26.544C91.3547 26.6507 92.496 26.736 93.648 26.8C94.8213 26.8427 95.952 26.864 97.04 26.864C98.064 26.864 99.0133 26.8427 99.888 26.8C100.784 26.7573 101.563 26.7147 102.224 26.672V27.024C101.2 27.024 100.517 27.28 100.176 27.792C99.856 28.304 99.6853 29.1147 99.664 30.224V38.384C98.7893 38.5333 98.032 38.736 97.392 38.992C96.752 39.2267 96.1653 39.4827 95.632 39.76C95.0987 40.016 94.5973 40.2827 94.128 40.56C93.6587 40.8373 93.1573 41.0933 92.624 41.328C92.112 41.5413 91.5467 41.7227 90.928 41.872C90.3093 42 89.584 42.064 88.752 42.064C86.8533 42.064 85.0827 41.744 83.44 41.104C81.7973 40.4427 80.3573 39.5147 79.12 38.32C77.8827 37.104 76.912 35.6427 76.208 33.936C75.504 32.2293 75.152 30.3307 75.152 28.24ZM82.128 18.448C81.168 19.7493 80.464 21.2853 80.016 23.056C79.568 24.8053 79.344 26.6507 79.344 28.592C79.344 30.256 79.5573 31.8773 79.984 33.456C80.4107 35.0347 81.04 36.4427 81.872 37.68C82.704 38.896 83.728 39.8773 84.944 40.624C86.1813 41.3493 87.6107 41.712 89.232 41.712C90.1493 41.712 90.992 41.5413 91.76 41.2C92.5493 40.8587 93.2213 40.4 93.776 39.824C94.3307 39.2267 94.768 38.544 95.088 37.776C95.408 36.9867 95.568 36.1653 95.568 35.312V30.352C95.568 29.776 95.44 29.3067 95.184 28.944C94.9493 28.56 94.5867 28.24 94.096 27.984C93.6053 27.7067 92.976 27.4827 92.208 27.312C91.44 27.12 90.512 26.9387 89.424 26.768C88.7627 26.6613 88.1227 26.4907 87.504 26.256C86.8853 26 86.2987 25.6907 85.744 25.328C84.464 24.5387 83.4827 23.5467 82.8 22.352C82.1173 21.1573 81.8933 19.856 82.128 18.448ZM102.258 41.744C102.876 41.4027 103.388 40.9653 103.794 40.432C104.22 39.8773 104.604 39.216 104.946 38.448C106.61 34.3093 108.103 30.5547 109.426 27.184C110.002 25.7547 110.556 24.3467 111.09 22.96C111.644 21.552 112.146 20.2827 112.594 19.152C113.042 18 113.415 17.04 113.714 16.272C114.034 15.504 114.226 15.024 114.29 14.832C114.311 14.8107 114.322 14.7893 114.322 14.768H114.578L124.786 38.48C125.276 39.6107 125.724 40.4 126.13 40.848C126.556 41.296 126.983 41.5947 127.41 41.744V42C126.578 41.936 125.831 41.8933 125.17 41.872C124.53 41.8507 123.9 41.84 123.282 41.84C122.663 41.84 122.012 41.8507 121.33 41.872C120.647 41.8933 119.858 41.936 118.962 42C117.895 42 117.01 41.7333 116.306 41.2C115.623 40.6453 115.026 39.9733 114.514 39.184C114.023 38.3733 113.586 37.5093 113.202 36.592C112.818 35.6533 112.402 34.8 111.954 34.032C111.506 33.264 110.972 32.6453 110.354 32.176C109.735 31.6853 108.956 31.472 108.018 31.536C107.74 32.2613 107.463 32.9653 107.186 33.648C106.93 34.3093 106.684 34.928 106.45 35.504C106.236 36.08 106.034 36.592 105.842 37.04C105.671 37.488 105.532 37.8507 105.426 38.128C105.127 38.9173 105.074 39.6533 105.266 40.336C105.479 40.9973 106.044 41.4667 106.962 41.744V42C106.492 41.9573 106.087 41.9253 105.746 41.904C105.404 41.8827 105.084 41.872 104.786 41.872C104.38 41.872 103.986 41.8827 103.602 41.904C103.218 41.9253 102.77 41.9573 102.258 42V41.744ZM112.498 20.304C112.327 20.7093 112.092 21.3067 111.794 22.096C111.495 22.864 111.143 23.7493 110.738 24.752C110.354 25.7333 109.938 26.7787 109.49 27.888C109.042 28.9973 108.604 30.096 108.178 31.184C108.988 31.1627 109.735 31.3547 110.418 31.76C111.122 32.2293 111.698 32.88 112.146 33.712C112.615 34.5227 113.052 35.376 113.458 36.272C113.735 36.8907 114.023 37.52 114.322 38.16C114.642 38.8 115.015 39.376 115.442 39.888C115.868 40.4 116.37 40.8267 116.946 41.168C117.522 41.488 118.194 41.648 118.962 41.648C119.41 41.648 119.751 41.5413 119.986 41.328C120.242 41.1147 120.412 40.848 120.498 40.528C120.583 40.1867 120.583 39.8133 120.498 39.408C120.434 38.9813 120.316 38.544 120.146 38.096C120.124 38.0533 120.114 38.0213 120.114 38C120.114 37.9787 120.103 37.9573 120.082 37.936C120.06 37.9147 120.05 37.8933 120.05 37.872C119.068 35.5893 118.236 33.648 117.554 32.048C116.871 30.448 116.284 29.104 115.794 28.016C115.324 26.9067 114.94 26 114.642 25.296C114.343 24.5707 114.076 23.9413 113.842 23.408C113.607 22.8533 113.383 22.352 113.17 21.904C112.978 21.4347 112.754 20.9013 112.498 20.304ZM131.399 18.736C131.399 18.1173 131.367 17.584 131.303 17.136C131.239 16.6667 131.121 16.2827 130.951 15.984C130.78 15.6853 130.524 15.4613 130.183 15.312C129.841 15.1627 129.404 15.088 128.871 15.088V14.768C129.916 14.8107 130.78 14.8533 131.463 14.896C132.145 14.9173 132.796 14.928 133.415 14.928C134.033 14.928 134.695 14.9173 135.399 14.896C136.103 14.8533 136.988 14.8107 138.055 14.768V15.088C137.521 15.088 137.084 15.1627 136.743 15.312C136.423 15.44 136.167 15.6427 135.975 15.92C135.804 16.176 135.676 16.5173 135.591 16.944C135.527 17.3493 135.495 17.84 135.495 18.416V41.648H139.719C141.212 41.648 142.513 41.5627 143.623 41.392C144.753 41.2 145.756 40.88 146.631 40.432C147.527 39.984 148.348 39.3973 149.095 38.672C149.841 37.9253 150.609 37.008 151.399 35.92C151.42 35.92 151.452 35.9307 151.495 35.952C151.537 35.9733 151.559 35.9947 151.559 36.016C151.58 36.016 151.612 36.0267 151.655 36.048L150.567 41.904V42H129.287V41.68C129.756 41.68 130.129 41.6053 130.407 41.456C130.684 41.3067 130.897 41.104 131.047 40.848C131.196 40.5707 131.292 40.2507 131.335 39.888C131.377 39.504 131.399 39.0773 131.399 38.608V18.736ZM152.289 41.744C152.907 41.4027 153.419 40.9653 153.825 40.432C154.251 39.8773 154.635 39.216 154.977 38.448C156.641 34.3093 158.134 30.5547 159.457 27.184C160.033 25.7547 160.587 24.3467 161.121 22.96C161.675 21.552 162.177 20.2827 162.625 19.152C163.073 18 163.446 17.04 163.745 16.272C164.065 15.504 164.257 15.024 164.321 14.832C164.342 14.8107 164.353 14.7893 164.353 14.768H164.609L174.817 38.48C175.307 39.6107 175.755 40.4 176.161 40.848C176.587 41.296 177.014 41.5947 177.441 41.744V42C176.609 41.936 175.862 41.8933 175.201 41.872C174.561 41.8507 173.931 41.84 173.313 41.84C172.694 41.84 172.043 41.8507 171.361 41.872C170.678 41.8933 169.889 41.936 168.993 42C167.926 42 167.041 41.7333 166.337 41.2C165.654 40.6453 165.057 39.9733 164.545 39.184C164.054 38.3733 163.617 37.5093 163.233 36.592C162.849 35.6533 162.433 34.8 161.985 34.032C161.537 33.264 161.003 32.6453 160.385 32.176C159.766 31.6853 158.987 31.472 158.049 31.536C157.771 32.2613 157.494 32.9653 157.217 33.648C156.961 34.3093 156.715 34.928 156.481 35.504C156.267 36.08 156.065 36.592 155.873 37.04C155.702 37.488 155.563 37.8507 155.457 38.128C155.158 38.9173 155.105 39.6533 155.297 40.336C155.51 40.9973 156.075 41.4667 156.993 41.744V42C156.523 41.9573 156.118 41.9253 155.777 41.904C155.435 41.8827 155.115 41.872 154.817 41.872C154.411 41.872 154.017 41.8827 153.633 41.904C153.249 41.9253 152.801 41.9573 152.289 42V41.744ZM162.529 20.304C162.358 20.7093 162.123 21.3067 161.825 22.096C161.526 22.864 161.174 23.7493 160.769 24.752C160.385 25.7333 159.969 26.7787 159.521 27.888C159.073 28.9973 158.635 30.096 158.209 31.184C159.019 31.1627 159.766 31.3547 160.449 31.76C161.153 32.2293 161.729 32.88 162.177 33.712C162.646 34.5227 163.083 35.376 163.489 36.272C163.766 36.8907 164.054 37.52 164.353 38.16C164.673 38.8 165.046 39.376 165.473 39.888C165.899 40.4 166.401 40.8267 166.977 41.168C167.553 41.488 168.225 41.648 168.993 41.648C169.441 41.648 169.782 41.5413 170.017 41.328C170.273 41.1147 170.443 40.848 170.529 40.528C170.614 40.1867 170.614 39.8133 170.529 39.408C170.465 38.9813 170.347 38.544 170.177 38.096C170.155 38.0533 170.145 38.0213 170.145 38C170.145 37.9787 170.134 37.9573 170.113 37.936C170.091 37.9147 170.081 37.8933 170.081 37.872C169.099 35.5893 168.267 33.648 167.585 32.048C166.902 30.448 166.315 29.104 165.825 28.016C165.355 26.9067 164.971 26 164.673 25.296C164.374 24.5707 164.107 23.9413 163.873 23.408C163.638 22.8533 163.414 22.352 163.201 21.904C163.009 21.4347 162.785 20.9013 162.529 20.304ZM178.102 14.768C178.913 14.8107 179.627 14.8533 180.246 14.896C180.886 14.9173 181.515 14.928 182.134 14.928C182.753 14.928 183.393 14.9173 184.054 14.896C184.715 14.8533 185.473 14.8107 186.326 14.768C187.115 14.7253 187.798 14.8853 188.374 15.248C188.95 15.6107 189.462 16.08 189.91 16.656C190.358 17.232 190.742 17.8613 191.062 18.544C191.403 19.2267 191.723 19.8667 192.022 20.464C192.342 21.04 192.651 21.5307 192.95 21.936C193.27 22.32 193.622 22.512 194.006 22.512C194.369 22.512 194.763 22.2987 195.19 21.872C195.851 21.0187 196.47 20.2293 197.046 19.504C197.622 18.7573 198.145 18.0747 198.614 17.456C199.126 16.7947 199.201 16.272 198.838 15.888C198.497 15.4827 197.654 15.2267 196.31 15.12V14.768C196.95 14.8107 197.515 14.8427 198.006 14.864C198.518 14.8853 198.987 14.896 199.414 14.896C199.947 14.896 200.427 14.8853 200.854 14.864C201.302 14.8427 201.771 14.8107 202.262 14.768V15.024C201.899 15.152 201.569 15.2907 201.27 15.44C200.993 15.568 200.737 15.728 200.502 15.92C200.267 16.0907 200.033 16.304 199.798 16.56C199.563 16.7947 199.318 17.0933 199.062 17.456C198.187 18.5653 197.131 19.92 195.894 21.52C194.678 23.0987 193.377 24.7627 191.99 26.512L200.118 38.48C200.801 39.504 201.409 40.272 201.942 40.784C202.497 41.2747 202.987 41.5947 203.414 41.744L203.382 42C202.55 41.936 201.803 41.8933 201.142 41.872C200.502 41.8507 199.873 41.84 199.254 41.84C198.635 41.84 197.985 41.8507 197.302 41.872C196.641 41.8933 195.862 41.936 194.966 42V41.744C195.35 41.5947 195.617 41.4027 195.766 41.168C195.937 40.912 196.001 40.6347 195.958 40.336C195.937 40.0373 195.841 39.7173 195.67 39.376C195.499 39.0347 195.286 38.672 195.03 38.288C194.283 37.1573 193.419 35.8773 192.438 34.448C191.457 32.9973 190.433 31.4827 189.366 29.904C187.873 31.824 186.454 33.6373 185.11 35.344C183.787 37.0507 182.678 38.48 181.782 39.632C181.419 40.1867 181.313 40.6453 181.462 41.008C181.633 41.3493 182.177 41.5947 183.094 41.744V42C182.625 41.9573 182.219 41.9253 181.878 41.904C181.537 41.8827 181.217 41.872 180.918 41.872C180.513 41.872 180.118 41.8827 179.734 41.904C179.35 41.9253 178.902 41.9573 178.39 42V41.744C179.009 41.5307 179.51 41.3067 179.894 41.072C180.278 40.816 180.662 40.464 181.046 40.016C181.494 39.44 182.017 38.768 182.614 38C183.211 37.232 183.862 36.4 184.566 35.504C185.27 34.608 186.006 33.6587 186.774 32.656C187.542 31.6533 188.331 30.64 189.142 29.616C188.438 28.5707 187.723 27.5253 186.998 26.48C186.294 25.4133 185.601 24.3893 184.918 23.408C184.257 22.4053 183.627 21.456 183.03 20.56C182.433 19.664 181.889 18.8533 181.398 18.128C181.185 17.8293 180.95 17.52 180.694 17.2C180.459 16.88 180.203 16.5813 179.926 16.304C179.649 16.0267 179.35 15.7813 179.03 15.568C178.731 15.3333 178.411 15.152 178.07 15.024L178.102 14.768ZM186.55 15.12C185.803 15.1627 185.409 15.4187 185.366 15.888C185.323 16.336 185.526 16.9013 185.974 17.584C186.337 18.1387 186.838 18.896 187.478 19.856C188.139 20.816 188.79 21.776 189.43 22.736C190.177 23.8453 190.966 25.008 191.798 26.224C192.267 25.6267 192.726 25.04 193.174 24.464C193.622 23.888 194.059 23.3227 194.486 22.768C194.315 22.8533 194.102 22.8853 193.846 22.864C193.611 22.8213 193.377 22.7147 193.142 22.544C192.822 22.3093 192.523 21.968 192.246 21.52C191.99 21.0507 191.723 20.5493 191.446 20.016C191.169 19.4613 190.87 18.896 190.55 18.32C190.251 17.7227 189.91 17.1893 189.526 16.72C189.142 16.2507 188.705 15.8667 188.214 15.568C187.745 15.2693 187.19 15.12 186.55 15.12ZM204.039 41.744C204.657 41.4027 205.169 40.9653 205.575 40.432C206.001 39.8773 206.385 39.216 206.727 38.448C208.391 34.3093 209.884 30.5547 211.207 27.184C211.783 25.7547 212.337 24.3467 212.871 22.96C213.425 21.552 213.927 20.2827 214.375 19.152C214.823 18 215.196 17.04 215.495 16.272C215.815 15.504 216.007 15.024 216.071 14.832C216.092 14.8107 216.103 14.7893 216.103 14.768H216.359L226.567 38.48C227.057 39.6107 227.505 40.4 227.911 40.848C228.337 41.296 228.764 41.5947 229.191 41.744V42C228.359 41.936 227.612 41.8933 226.951 41.872C226.311 41.8507 225.681 41.84 225.063 41.84C224.444 41.84 223.793 41.8507 223.111 41.872C222.428 41.8933 221.639 41.936 220.743 42C219.676 42 218.791 41.7333 218.087 41.2C217.404 40.6453 216.807 39.9733 216.295 39.184C215.804 38.3733 215.367 37.5093 214.983 36.592C214.599 35.6533 214.183 34.8 213.735 34.032C213.287 33.264 212.753 32.6453 212.135 32.176C211.516 31.6853 210.737 31.472 209.799 31.536C209.521 32.2613 209.244 32.9653 208.967 33.648C208.711 34.3093 208.465 34.928 208.231 35.504C208.017 36.08 207.815 36.592 207.623 37.04C207.452 37.488 207.313 37.8507 207.207 38.128C206.908 38.9173 206.855 39.6533 207.047 40.336C207.26 40.9973 207.825 41.4667 208.743 41.744V42C208.273 41.9573 207.868 41.9253 207.527 41.904C207.185 41.8827 206.865 41.872 206.567 41.872C206.161 41.872 205.767 41.8827 205.383 41.904C204.999 41.9253 204.551 41.9573 204.039 42V41.744ZM214.279 20.304C214.108 20.7093 213.873 21.3067 213.575 22.096C213.276 22.864 212.924 23.7493 212.519 24.752C212.135 25.7333 211.719 26.7787 211.271 27.888C210.823 28.9973 210.385 30.096 209.959 31.184C210.769 31.1627 211.516 31.3547 212.199 31.76C212.903 32.2293 213.479 32.88 213.927 33.712C214.396 34.5227 214.833 35.376 215.239 36.272C215.516 36.8907 215.804 37.52 216.103 38.16C216.423 38.8 216.796 39.376 217.223 39.888C217.649 40.4 218.151 40.8267 218.727 41.168C219.303 41.488 219.975 41.648 220.743 41.648C221.191 41.648 221.532 41.5413 221.767 41.328C222.023 41.1147 222.193 40.848 222.279 40.528C222.364 40.1867 222.364 39.8133 222.279 39.408C222.215 38.9813 222.097 38.544 221.927 38.096C221.905 38.0533 221.895 38.0213 221.895 38C221.895 37.9787 221.884 37.9573 221.863 37.936C221.841 37.9147 221.831 37.8933 221.831 37.872C220.849 35.5893 220.017 33.648 219.335 32.048C218.652 30.448 218.065 29.104 217.575 28.016C217.105 26.9067 216.721 26 216.423 25.296C216.124 24.5707 215.857 23.9413 215.623 23.408C215.388 22.8533 215.164 22.352 214.951 21.904C214.759 21.4347 214.535 20.9013 214.279 20.304ZM230.652 14.768H242.684C244.113 14.768 245.425 14.8747 246.62 15.088C247.815 15.28 248.839 15.632 249.692 16.144C250.567 16.656 251.239 17.3493 251.708 18.224C252.177 19.0773 252.412 20.1547 252.412 21.456C252.412 22.416 252.273 23.216 251.996 23.856C251.719 24.4747 251.345 24.9973 250.876 25.424C250.407 25.8293 249.852 26.1493 249.212 26.384C248.593 26.6187 247.921 26.8107 247.196 26.96C246.492 27.1093 245.767 27.248 245.02 27.376C244.273 27.504 243.537 27.6533 242.812 27.824C243.345 27.824 243.9 27.9093 244.476 28.08C245.052 28.2507 245.628 28.5387 246.204 28.944C246.801 29.328 247.399 29.8613 247.996 30.544C248.593 31.2053 249.18 32.0267 249.756 33.008C250.375 34.096 251.004 35.12 251.644 36.08C252.284 37.0187 252.892 37.872 253.468 38.64C254.044 39.408 254.577 40.0587 255.068 40.592C255.559 41.104 255.975 41.4667 256.316 41.68V42C256.06 42 255.655 42 255.1 42C254.567 41.9787 253.991 41.968 253.372 41.968C252.775 41.968 252.199 41.968 251.644 41.968C251.111 41.968 250.716 41.9787 250.46 42C249.927 41.1893 249.329 40.24 248.668 39.152C248.007 38.0427 247.281 36.816 246.492 35.472C246.044 34.704 245.585 33.936 245.116 33.168C244.668 32.3787 244.167 31.6213 243.612 30.896C243.121 30.2773 242.609 29.8293 242.076 29.552C241.564 29.2747 241.063 29.136 240.572 29.136C240.039 29.136 239.58 29.2853 239.196 29.584C238.812 29.8827 238.481 30.256 238.204 30.704C237.948 31.152 237.745 31.6427 237.596 32.176C237.447 32.688 237.34 33.1573 237.276 33.584V38.96C237.276 39.3653 237.308 39.7387 237.372 40.08C237.436 40.4 237.543 40.688 237.692 40.944C237.841 41.1787 238.055 41.36 238.332 41.488C238.609 41.616 238.961 41.68 239.388 41.68V42C238.407 41.9573 237.607 41.9253 236.988 41.904C236.369 41.8827 235.761 41.872 235.164 41.872C234.631 41.872 234.055 41.8827 233.436 41.904C232.817 41.9253 232.028 41.9573 231.068 42V41.68C231.537 41.68 231.911 41.6053 232.188 41.456C232.465 41.3067 232.679 41.104 232.828 40.848C232.977 40.5707 233.073 40.2507 233.116 39.888C233.159 39.504 233.18 39.0773 233.18 38.608V18.736C233.18 18.1173 233.148 17.584 233.084 17.136C233.02 16.6667 232.903 16.2827 232.732 15.984C232.561 15.6853 232.305 15.4613 231.964 15.312C231.623 15.1627 231.185 15.088 230.652 15.088V14.768ZM237.276 31.952C237.66 30.736 238.193 29.7973 238.876 29.136C239.58 28.4747 240.327 27.952 241.116 27.568C241.927 27.1627 242.748 26.8427 243.58 26.608C244.412 26.352 245.169 26.0427 245.852 25.68C246.556 25.296 247.132 24.784 247.58 24.144C248.028 23.504 248.273 22.608 248.316 21.456C248.359 20.24 248.188 19.2267 247.804 18.416C247.441 17.6053 246.94 16.9547 246.3 16.464C245.66 15.9733 244.924 15.632 244.092 15.44C243.26 15.2267 242.396 15.12 241.5 15.12H237.276V31.952ZM254.414 20.752C254.627 19.536 254.798 18.544 254.926 17.776C255.075 17.008 255.192 16.4107 255.278 15.984C255.363 15.536 255.416 15.2267 255.438 15.056C255.48 14.8853 255.502 14.7893 255.502 14.768H282.798V14.864L283.886 20.752C283.843 20.7733 283.811 20.784 283.79 20.784C283.79 20.784 283.768 20.7947 283.726 20.816C283.683 20.8373 283.651 20.848 283.63 20.848C282.947 19.8027 282.296 18.9173 281.678 18.192C281.059 17.4453 280.376 16.848 279.63 16.4C278.904 15.952 278.062 15.632 277.102 15.44C276.163 15.2267 275.022 15.12 273.678 15.12H271.15V38.352C271.171 39.4827 271.331 40.3253 271.63 40.88C271.95 41.4133 272.632 41.68 273.678 41.68V42C272.632 41.9573 271.768 41.9253 271.086 41.904C270.403 41.8613 269.752 41.84 269.134 41.84C268.515 41.8187 267.854 41.8293 267.15 41.872C266.467 41.8933 265.592 41.936 264.526 42V41.68C265.059 41.68 265.496 41.6053 265.838 41.456C266.179 41.3067 266.435 41.0827 266.606 40.784C266.776 40.4853 266.894 40.112 266.958 39.664C267.022 39.1947 267.054 38.6507 267.054 38.032V15.12H264.622C263.278 15.12 262.126 15.2267 261.166 15.44C260.227 15.632 259.384 15.952 258.638 16.4C257.912 16.848 257.23 17.4453 256.59 18.192C255.971 18.9173 255.331 19.8027 254.67 20.848C254.648 20.848 254.616 20.8373 254.574 20.816C254.531 20.7947 254.499 20.784 254.478 20.784C254.456 20.784 254.435 20.7733 254.414 20.752Z" fill="white"/>
</svg>
