<svg width="148" height="202" fill="none" xmlns="http://www.w3.org/2000/svg"><path fill-rule="evenodd" clip-rule="evenodd" d="M134.7 84.2c-.5-45-29.3-72.2-65.2-70.3a61.6 61.6 0 0 0-55.8 56.7c-.2 1.8 0 3.6-.3 5.4-.5 3.8-2.6 6.3-6.7 6.3-4.4 0-6.8-2.7-6.7-6.9.4-6.4.8-13 2.3-19.1C11 22.2 43.8-2.3 77.1.2a74.5 74.5 0 0 1 70.2 66 73 73 0 0 1-25.5 66.4 77.2 77.2 0 0 0-26.4 40l-1.4 4c-7.8 18.8-22 27.5-40.4 24.7-19-3-34.6-19-36.2-37.3-.4-4.5.3-8.4 5.6-9.6 4.2-.9 6.8 2 7.8 8 3.2 18.2 20.3 30 35.8 24.7 9.5-3 14.1-11 16.4-19.3a87 87 0 0 1 30-45.3c14.6-12 21.8-28 21.7-38.3Z" fill="#fff" fill-opacity=".1"/><path fill-rule="evenodd" clip-rule="evenodd" d="M39.6 77.2c2.4 11.2 4.6 22.4 7.3 33.5 1.4 5.8.3 9.5-3.8 10.7-4.2 1.1-8-1.4-9.5-6.6-4.3-15.6-8-31.3-5.9-47.6a46.8 46.8 0 0 1 48.4-40A47.5 47.5 0 0 1 121.3 72c.1 5-2 8.2-6 8.5-4.6.4-7.1-2.5-7.5-8.4a33.7 33.7 0 0 0-66.5-4.8c-.7 3.2-.6 6.5-.8 9.7l-1 .1Z" fill="#fff" fill-opacity=".1"/><path fill-rule="evenodd" clip-rule="evenodd" d="M75.7 126.7c-1 7.2-3.5 13-9.6 16a71.1 71.1 0 0 1-17.8 5.4c-3.8.8-7-1.6-7.3-6-.4-4.4 2-7 6.2-7.3C63 133.2 62 129.8 59 116c-.9-4-2.5-7.7-4-11.6-1.8-4.1-1-7.6 3.1-9.4 4.2-1.8 7.8-.2 9.2 4 3 9.2 5.7 18.4 8.4 27.6Z" fill="#fff" fill-opacity=".1"/></svg>