<svg width="865" height="715" fill="none" xmlns="http://www.w3.org/2000/svg"><path d="M83.5 469a6.5 6.5 0 1 0 0-13 6.5 6.5 0 0 0 0 13ZM288.5 371a6.5 6.5 0 1 0 0-13 6.5 6.5 0 0 0 0 13ZM338.5 472a6.5 6.5 0 1 0 0-13 6.5 6.5 0 0 0 0 13ZM288.5 619a6.5 6.5 0 1 0 0-13 6.5 6.5 0 0 0 0 13ZM117.5 571a6.5 6.5 0 1 0 0-13 6.5 6.5 0 0 0 0 13ZM487.5 388a6.5 6.5 0 1 0 0-13 6.5 6.5 0 0 0 0 13ZM372.5 115a6.5 6.5 0 1 0 0-13 6.5 6.5 0 0 0 0 13ZM466.5 42a6.5 6.5 0 1 0 0-13 6.5 6.5 0 0 0 0 13ZM559.5 198a6.5 6.5 0 1 0 0-13 6.5 6.5 0 0 0 0 13ZM464.5 237a6.5 6.5 0 1 0 0-13 6.5 6.5 0 0 0 0 13ZM820.5 392a6.5 6.5 0 1 0 0-13 6.5 6.5 0 0 0 0 13ZM756.5 65a6.5 6.5 0 1 0 0-13 6.5 6.5 0 0 0 0 13ZM639.5 400a6.5 6.5 0 1 0 0-13 6.5 6.5 0 0 0 0 13ZM489 680c3.9 0 7-3 7-6.5 0-3.6-3.1-6.5-7-6.5s-7 3-7 6.5c0 3.6 3.1 6.5 7 6.5Z" stroke="#E1E1E1" stroke-opacity=".1" stroke-miterlimit="10" stroke-linecap="round" stroke-linejoin="round"/><circle opacity=".3" cx="189.5" cy="146.5" r="476" stroke="#E1E1E1" stroke-opacity=".5"/><circle opacity=".3" cx="189.5" cy="146.5" r="675" stroke="#E1E1E1" stroke-opacity=".5"/><circle opacity=".3" cx="189.5" cy="146.5" r="288" stroke="#E1E1E1" stroke-opacity=".5"/></svg>