<svg width="24" height="18" viewBox="0 0 24 18" fill="none" xmlns="http://www.w3.org/2000/svg">
<path d="M23.4991 3.15557C23.3625 2.64135 23.0946 2.1724 22.7223 1.79567C22.35 1.41894 21.8863 1.14764 21.3777 1.00892C19.5054 0.5 12 0.5 12 0.5C12 0.5 4.49464 0.5 2.62232 1.00621C2.11345 1.14448 1.64953 1.41563 1.27716 1.79243C0.904787 2.16923 0.637069 2.63842 0.500893 3.15287C-1.19209e-07 5.04777 0 9 0 9C0 9 -1.19209e-07 12.9522 0.500893 14.8444C0.776786 15.8893 1.59107 16.7123 2.62232 16.9911C4.49464 17.5 12 17.5 12 17.5C12 17.5 19.5054 17.5 21.3777 16.9911C22.4116 16.7123 23.2232 15.8893 23.4991 14.8444C24 12.9522 24 9 24 9C24 9 24 5.04777 23.4991 3.15557ZM9.61607 12.6274V5.37261L15.8304 8.97293L9.61607 12.6274Z" fill="#FFA100"/>
</svg>
