<svg width="256" height="256" viewBox="0 0 256 256" fill="none" xmlns="http://www.w3.org/2000/svg">
<rect width="256" height="256" fill="black"/>
<path fill-rule="evenodd" clip-rule="evenodd" d="M178.435 134.843C178.435 139.978 178.435 145.113 178.435 150.248C178.435 150.588 178.464 150.929 178.407 151.241C178.293 152.007 177.809 152.461 177.039 152.489C176.242 152.517 175.701 152.064 175.587 151.241C175.53 150.9 175.558 150.56 175.558 150.248C175.558 140.091 175.558 129.963 175.558 119.806C175.558 115.352 172.112 112.061 167.639 112.174C163.594 112.288 160.433 115.636 160.404 119.891C160.376 129.934 160.404 139.978 160.404 150.021C160.404 150.333 160.404 150.617 160.404 150.929C160.376 151.893 159.777 152.517 158.951 152.517C158.154 152.489 157.584 151.893 157.556 150.985C157.556 150.815 157.556 150.645 157.556 150.475C157.556 140.29 157.556 130.105 157.556 119.948C157.556 114.189 161.458 109.905 167.184 109.309C172.795 108.742 178.122 113.281 178.435 118.927C178.435 119.125 178.464 119.324 178.464 119.522C178.407 124.629 178.407 129.736 178.435 134.843Z" fill="white"/>
<path fill-rule="evenodd" clip-rule="evenodd" d="M173.677 121.281C173.677 122.019 173.706 122.757 173.677 123.494C173.649 124.544 173.079 125.168 172.196 125.14C171.313 125.14 170.772 124.516 170.743 123.438C170.715 122.076 170.743 120.686 170.743 119.324C170.743 117.849 170.173 117.168 168.721 116.912C167.61 116.714 167.125 116.175 167.239 115.267C167.353 114.416 168.037 113.933 169.119 114.019C171.626 114.217 173.592 116.288 173.705 118.955C173.705 119.749 173.677 120.515 173.677 121.281Z" fill="white"/>
<path fill-rule="evenodd" clip-rule="evenodd" d="M168.067 130.558C164.763 130.473 161.829 127.551 161.772 124.26C161.743 123.21 162.284 122.53 163.167 122.501C163.993 122.473 164.535 123.012 164.677 124.033C164.99 126.246 166.215 127.494 168.295 127.693C169.377 127.806 169.947 128.346 169.89 129.225C169.804 130.133 169.178 130.587 168.067 130.558Z" fill="white"/>
<path fill-rule="evenodd" clip-rule="evenodd" d="M169.431 122.359C169.431 122.955 169.459 123.579 169.431 124.175C169.374 125.055 168.747 125.679 167.978 125.679C167.209 125.679 166.554 125.083 166.525 124.175C166.468 122.927 166.468 121.707 166.525 120.459C166.554 119.551 167.18 118.983 167.978 118.983C168.775 118.983 169.374 119.579 169.431 120.459C169.459 121.083 169.431 121.735 169.431 122.359Z" fill="white"/>
<path fill-rule="evenodd" clip-rule="evenodd" d="M102.696 128.033C102.582 118.104 96.2301 112.118 88.2828 112.543C81.9021 112.912 76.2336 118.643 75.9487 125.026C75.9202 125.423 75.9487 125.821 75.8917 126.218C75.7778 127.069 75.322 127.608 74.4105 127.608C73.442 127.608 72.9008 127.012 72.9293 126.104C73.0147 124.686 73.1002 123.239 73.442 121.877C75.3505 114.359 82.6142 108.968 89.9634 109.507C98.1956 110.103 104.548 116.033 105.488 124.062C106.171 129.906 104.234 134.842 99.8477 138.701C97.0562 141.141 94.8913 143.893 94.0083 147.524C93.9228 147.836 93.8089 148.12 93.6949 148.404C91.9858 152.546 88.824 154.475 84.7791 153.851C80.5633 153.198 77.1166 149.652 76.7748 145.623C76.6893 144.63 76.8318 143.779 77.9996 143.524C78.9397 143.325 79.5094 143.949 79.7372 145.283C80.4494 149.283 84.2094 151.893 87.6561 150.73C89.7355 150.049 90.761 148.318 91.2737 146.474C92.3561 142.332 94.6919 139.211 97.9107 136.488C101.13 133.821 102.725 130.303 102.696 128.033Z" fill="white"/>
<path fill-rule="evenodd" clip-rule="evenodd" d="M81.674 126.502C82.2152 128.97 82.6994 131.438 83.2976 133.878C83.6109 135.155 83.3546 135.977 82.4431 136.233C81.5315 136.488 80.7055 135.921 80.3636 134.786C79.3952 131.353 78.5691 127.892 79.0533 124.289C79.737 119.097 84.5225 115.182 89.7352 115.465C95.1759 115.749 99.5341 120.09 99.7335 125.367C99.762 126.473 99.2777 127.182 98.3947 127.239C97.3977 127.324 96.828 126.7 96.7426 125.395C96.4577 121.707 93.6377 118.728 90.1055 118.473C86.1746 118.189 82.8703 120.572 82.0443 124.345C81.9018 125.026 81.9303 125.764 81.8734 126.473C81.8164 126.473 81.7309 126.473 81.674 126.502Z" fill="white"/>
<path fill-rule="evenodd" clip-rule="evenodd" d="M89.6498 137.396C89.4219 138.984 88.8807 140.289 87.5419 140.942C86.3171 141.538 84.9498 141.878 83.611 142.133C82.7564 142.304 82.0728 141.765 81.9873 140.8C81.9019 139.835 82.4431 139.268 83.3546 139.183C86.8583 138.842 86.6304 138.076 85.9752 135.069C85.7759 134.19 85.4055 133.367 85.0637 132.516C84.6934 131.608 84.8643 130.842 85.7759 130.445C86.6874 130.048 87.485 130.388 87.7983 131.324C88.4534 133.339 89.0516 135.381 89.6498 137.396Z" fill="white"/>
<path fill-rule="evenodd" clip-rule="evenodd" d="M149.471 100.627C138.931 116.373 117.909 116.203 108.737 100.287C118.536 84.7967 138.761 84.9669 149.471 100.627ZM147.477 100.656C137.023 86.9245 120.217 86.811 110.731 100.315C122.467 116.402 137.165 112.742 147.477 100.656Z" fill="white"/>
<path d="M149.467 100.628L149.153 100.429C143.997 108.146 136.306 111.976 128.758 111.976C121.095 111.976 113.604 108.032 109.046 100.117L108.733 100.287L109.046 100.486C113.832 92.8825 121.152 89.1376 128.587 89.1376C136.136 89.1376 143.827 93.0244 149.182 100.826L149.467 100.628L149.751 100.429C144.311 92.457 136.363 88.4283 128.559 88.4283C120.868 88.4283 113.319 92.3435 108.42 100.117L108.306 100.287L108.42 100.486C113.091 108.6 120.868 112.714 128.758 112.714C136.534 112.714 144.453 108.742 149.751 100.855L149.894 100.656L149.751 100.457L149.467 100.628ZM147.473 100.656L147.757 100.429C142.431 93.4216 135.423 89.9036 128.559 89.9036C121.808 89.9036 115.199 93.3364 110.442 100.089L110.3 100.287L110.442 100.486C113.234 104.316 116.196 107.039 119.244 108.827C122.292 110.614 125.425 111.437 128.53 111.437C132.005 111.437 135.452 110.416 138.699 108.571C141.947 106.727 145.023 104.089 147.757 100.883L147.957 100.656L147.786 100.429L147.473 100.656L147.188 100.429C144.482 103.607 141.491 106.188 138.329 107.976C135.167 109.763 131.863 110.756 128.502 110.756C125.539 110.756 122.52 109.962 119.586 108.259C116.652 106.529 113.746 103.89 111.012 100.117L110.727 100.316L111.012 100.514C115.655 93.9039 122.035 90.6412 128.559 90.6412C135.196 90.6412 141.975 94.0173 147.188 100.883L147.473 100.656Z" fill="white"/>
<path fill-rule="evenodd" clip-rule="evenodd" d="M128.986 109.706C123.887 109.678 119.87 105.564 119.927 100.486C119.984 95.4928 124.058 91.4926 129.071 91.4642C134.113 91.4358 138.272 95.5779 138.243 100.628C138.215 105.678 134.084 109.735 128.986 109.706ZM121.494 100.571C121.466 104.713 124.798 108.089 128.986 108.146C133.173 108.203 136.677 104.798 136.705 100.6C136.705 96.4574 133.372 93.0813 129.213 93.0246C124.969 92.9678 121.523 96.3439 121.494 100.571Z" fill="white"/>
<path d="M128.989 109.706V109.338C126.568 109.309 124.375 108.345 122.808 106.756C121.241 105.167 120.273 102.983 120.273 100.571C120.273 100.543 120.273 100.514 120.273 100.458C120.33 95.6629 124.232 91.8045 129.046 91.8045H129.075C131.496 91.8045 133.689 92.7975 135.284 94.3862C136.879 95.975 137.876 98.1595 137.876 100.571V100.599C137.848 105.451 133.917 109.309 129.075 109.309C129.046 109.309 129.018 109.309 128.989 109.309V109.706V110.075C129.018 110.075 129.046 110.075 129.075 110.075C134.316 110.075 138.56 105.876 138.589 100.628V100.599C138.589 95.3792 134.316 91.1236 129.075 91.1236H129.046C123.833 91.152 119.618 95.2941 119.561 100.486C119.561 100.514 119.561 100.571 119.561 100.599C119.561 105.82 123.719 110.047 128.989 110.075V109.706ZM121.498 100.571H121.127V100.628C121.127 104.94 124.631 108.458 128.961 108.515C128.989 108.515 129.046 108.515 129.075 108.515C133.433 108.515 137.022 104.968 137.022 100.599V100.571C137.022 96.2587 133.518 92.7124 129.16 92.6556C129.132 92.6556 129.075 92.6556 129.046 92.6556C124.688 92.6556 121.099 96.1736 121.099 100.571H121.498H121.868C121.896 96.5991 125.144 93.3933 129.103 93.3933C129.132 93.3933 129.16 93.3933 129.189 93.3933C133.148 93.45 136.338 96.6842 136.338 100.599V100.628C136.338 104.571 133.062 107.806 129.103 107.806C129.075 107.806 129.018 107.806 128.989 107.806C125.03 107.749 121.868 104.543 121.868 100.628V100.599L121.498 100.571Z" fill="white"/>
<path fill-rule="evenodd" clip-rule="evenodd" d="M124.544 100.117C124.459 103.011 126.225 105.053 128.788 105.195C131.38 105.337 133.545 103.436 133.716 100.883C133.887 98.443 132.093 96.4003 129.671 96.2301C133.317 102.784 126.538 103.323 124.544 100.117Z" fill="white"/>
<path fill-rule="evenodd" clip-rule="evenodd" d="M146.05 79.463C146.42 79.7751 146.904 79.9737 146.99 80.2858C147.075 80.7113 146.99 81.3355 146.705 81.6192C145.594 82.8391 144.369 83.9739 143.201 85.1655C142.774 85.5911 142.347 86.045 141.919 86.4422C141.35 86.9529 140.609 86.9529 140.153 86.4706C139.726 86.0166 139.783 85.3641 140.353 84.7967C141.891 83.2363 143.429 81.7043 144.996 80.1723C145.252 79.917 145.623 79.7467 146.05 79.463Z" fill="white"/>
<path d="M146.046 79.4635L145.961 79.5486C146.16 79.7188 146.36 79.8323 146.53 79.9741C146.616 80.0309 146.701 80.0876 146.73 80.1444C146.787 80.2011 146.815 80.2579 146.815 80.3146C146.844 80.3997 146.844 80.5132 146.844 80.6267C146.844 80.9671 146.73 81.3643 146.559 81.5345C145.448 82.7545 144.252 83.8893 143.055 85.0809C142.628 85.5064 142.201 85.9603 141.773 86.3575C141.517 86.6129 141.204 86.7264 140.919 86.7264C140.634 86.7264 140.378 86.6129 140.178 86.3859C140.007 86.2157 139.922 86.0171 139.922 85.7901C139.922 85.5064 140.064 85.1943 140.378 84.8823C141.916 83.3219 143.454 81.7899 145.021 80.2578C145.277 80.0025 145.619 79.8607 146.046 79.577V79.4635L145.989 79.35C145.59 79.6337 145.22 79.7755 144.907 80.0593C143.34 81.5913 141.802 83.1517 140.264 84.6837C139.922 85.0241 139.751 85.3929 139.751 85.7618C139.751 86.0455 139.865 86.3008 140.064 86.5278C140.321 86.7831 140.634 86.9249 140.976 86.9249C141.318 86.9249 141.688 86.7831 142.001 86.4994C142.457 86.1022 142.884 85.6483 143.312 85.2227C144.479 84.0595 145.704 82.9247 146.815 81.6764C147.043 81.421 147.157 80.9955 147.157 80.5983C147.157 80.4564 147.157 80.343 147.129 80.2295C147.1 80.116 147.043 80.0309 146.986 79.9458C146.872 79.8323 146.73 79.7188 146.587 79.6337C146.445 79.5486 146.303 79.4351 146.16 79.3216L146.103 79.2649L146.018 79.3216L146.046 79.4635Z" fill="white"/>
<path fill-rule="evenodd" clip-rule="evenodd" d="M114.059 85.8179C113.831 86.1016 113.632 86.5555 113.318 86.669C112.976 86.8109 112.35 86.7825 112.093 86.5555C110.356 84.91 108.647 83.2078 106.966 81.5056C106.51 81.0516 106.624 80.3424 107.108 79.9452C107.593 79.5196 108.191 79.548 108.732 80.0587C110.327 81.6191 111.922 83.2078 113.518 84.7966C113.603 84.8817 113.717 84.9952 113.774 85.1086C113.888 85.2789 113.945 85.4775 114.059 85.8179Z" fill="white"/>
<path d="M114.06 85.8185L113.975 85.7333C113.861 85.8752 113.747 86.0738 113.633 86.2156C113.519 86.3859 113.405 86.4994 113.291 86.5277C113.177 86.5845 112.978 86.6128 112.807 86.6128C112.664 86.6128 112.55 86.5845 112.436 86.5561C112.323 86.5277 112.237 86.471 112.18 86.4426C110.442 84.7971 108.733 83.0949 107.053 81.3926C106.882 81.2224 106.796 80.9955 106.796 80.7969C106.796 80.5132 106.939 80.2294 107.167 80.0025C107.366 79.8323 107.594 79.7471 107.822 79.7471C108.078 79.7471 108.363 79.8606 108.648 80.1443C110.243 81.7047 111.838 83.2935 113.433 84.8822C113.519 84.9673 113.604 85.0525 113.661 85.1659C113.747 85.3362 113.804 85.5348 113.946 85.8752L114.06 85.8185L114.174 85.7901C114.06 85.4496 114.003 85.251 113.889 85.0525C113.832 84.9106 113.718 84.7971 113.604 84.712C112.009 83.1232 110.414 81.5629 108.819 79.9741C108.506 79.662 108.164 79.5202 107.822 79.5202C107.537 79.5202 107.252 79.6337 106.996 79.8323C106.711 80.0876 106.54 80.428 106.54 80.7969C106.54 81.0806 106.654 81.3359 106.853 81.5629C108.534 83.2935 110.243 84.9957 111.981 86.6412C112.066 86.7263 112.209 86.7831 112.323 86.8114C112.465 86.8398 112.607 86.8682 112.75 86.8682C112.949 86.8682 113.149 86.8398 113.319 86.7831C113.519 86.6979 113.661 86.5277 113.775 86.3859C113.889 86.2156 114.003 86.0454 114.089 85.9036L114.146 85.8468L114.117 85.7901L114.06 85.8185Z" fill="white"/>
<path fill-rule="evenodd" clip-rule="evenodd" d="M127.992 78.4417C127.992 79.5198 127.992 80.5979 127.992 81.676C127.992 82.4987 127.564 82.981 126.852 82.981C126.14 82.981 125.713 82.5271 125.713 81.6476C125.713 79.463 125.713 77.2785 125.713 75.094C125.713 74.2712 126.197 73.7606 126.852 73.7606C127.536 73.7606 127.992 74.2712 127.992 75.094C127.992 76.2288 127.992 77.3352 127.992 78.4417Z" fill="white"/>
<path d="M127.988 78.4418H127.874C127.874 79.0943 127.874 79.7469 127.874 80.371C127.874 80.7966 127.874 81.2221 127.874 81.6761C127.874 82.0732 127.76 82.357 127.589 82.5555C127.418 82.7541 127.162 82.8676 126.848 82.8676C126.535 82.8676 126.279 82.7541 126.108 82.5839C125.937 82.3853 125.851 82.1016 125.823 81.6761C125.823 80.598 125.823 79.5483 125.823 78.4702C125.823 77.3637 125.823 76.2289 125.823 75.1224C125.823 74.7253 125.937 74.4416 126.108 74.2146C126.279 74.016 126.535 73.9025 126.82 73.9025C127.133 73.9025 127.361 74.016 127.56 74.2146C127.731 74.4132 127.845 74.7253 127.845 75.1224C127.845 75.5764 127.845 76.0019 127.845 76.4559C127.845 77.1084 127.845 77.7893 127.845 78.4418H127.988H128.102C128.102 77.7893 128.102 77.1084 128.102 76.4559C128.102 76.0019 128.102 75.5764 128.102 75.1224C128.102 74.6969 127.988 74.3281 127.76 74.0727C127.532 73.8174 127.219 73.6755 126.848 73.6755H126.82C126.449 73.6755 126.136 73.8174 125.908 74.0727C125.68 74.3281 125.566 74.6969 125.566 75.1224C125.566 76.2289 125.566 77.3637 125.566 78.4702C125.566 79.5483 125.566 80.598 125.566 81.6761C125.566 82.13 125.68 82.4704 125.908 82.7258C126.136 82.9811 126.449 83.0946 126.82 83.0946C127.19 83.0946 127.532 82.9527 127.76 82.6974C127.988 82.4421 128.102 82.1016 128.102 81.6477C128.102 81.2221 128.102 80.7682 128.102 80.3426C128.102 79.6901 128.102 79.0376 128.102 78.4134H127.988V78.4418Z" fill="white"/>
<path fill-rule="evenodd" clip-rule="evenodd" d="M134.687 149.964C136.795 149.936 138.988 149.822 140.042 147.468C141.096 145.084 140.042 143.212 138.305 141.623C135.769 139.325 133.149 137.084 130.642 134.758C126.968 131.41 124.974 127.239 124.803 122.274C124.774 121.65 125.429 121.026 125.771 120.374C126.113 120.969 126.74 121.537 126.768 122.133C127.053 127.012 129.132 130.899 132.835 134.048C135.371 136.233 137.877 138.502 140.299 140.829C141.865 142.304 142.691 144.177 142.435 146.389C141.951 150.532 136.766 153.397 132.807 151.666C132.465 151.525 132.009 150.957 132.066 150.673C132.123 150.333 132.636 149.936 133.006 149.851C133.491 149.737 134.06 149.907 134.687 149.964Z" fill="white"/>
<path d="M134.682 149.964V150.191C135.736 150.191 136.847 150.163 137.844 149.822C138.328 149.652 138.812 149.397 139.211 149.028C139.61 148.659 139.98 148.177 140.236 147.553C140.55 146.872 140.664 146.219 140.664 145.595C140.664 144.772 140.436 144.035 140.037 143.325C139.638 142.645 139.068 141.992 138.442 141.425C135.907 139.127 133.286 136.885 130.779 134.559C127.162 131.24 125.196 127.126 125.025 122.246V122.218C125.025 122.104 125.054 121.991 125.111 121.849C125.196 121.65 125.339 121.423 125.51 121.196C125.68 120.969 125.851 120.714 125.994 120.487L125.794 120.374L125.595 120.487C125.794 120.799 126.022 121.083 126.222 121.367C126.421 121.65 126.535 121.906 126.563 122.133C126.848 127.069 128.985 131.041 132.688 134.218C135.223 136.403 137.701 138.673 140.151 140.999C141.49 142.276 142.259 143.808 142.259 145.595C142.259 145.85 142.23 146.106 142.202 146.361C142.031 147.95 141.119 149.34 139.838 150.333C138.556 151.326 136.932 151.95 135.308 151.95C134.482 151.95 133.656 151.808 132.887 151.468C132.773 151.411 132.602 151.269 132.488 151.127C132.431 151.042 132.374 150.957 132.346 150.9C132.317 150.815 132.289 150.759 132.289 150.73C132.289 150.702 132.317 150.645 132.374 150.588C132.431 150.475 132.574 150.361 132.688 150.276C132.83 150.191 132.973 150.134 133.058 150.106C133.144 150.078 133.257 150.078 133.371 150.078C133.742 150.078 134.197 150.191 134.682 150.248V149.964L134.71 149.737C134.254 149.68 133.799 149.567 133.343 149.567C133.2 149.567 133.058 149.567 132.916 149.595C132.659 149.652 132.431 149.794 132.204 149.964C132.09 150.049 132.004 150.163 131.919 150.248C131.833 150.361 131.776 150.475 131.776 150.617C131.776 150.645 131.776 150.673 131.776 150.702C131.776 150.844 131.805 150.957 131.862 151.071C131.947 151.241 132.061 151.411 132.204 151.553C132.346 151.695 132.488 151.808 132.659 151.893C133.485 152.262 134.397 152.432 135.28 152.432C137.017 152.432 138.755 151.78 140.094 150.73C141.433 149.652 142.43 148.148 142.629 146.418C142.658 146.134 142.686 145.879 142.686 145.595C142.686 143.666 141.86 141.992 140.436 140.659C137.986 138.332 135.508 136.063 132.973 133.878C129.327 130.757 127.276 126.927 126.991 122.133C126.962 121.764 126.763 121.423 126.563 121.14C126.364 120.828 126.108 120.544 125.965 120.288L125.737 119.92L125.538 120.288C125.396 120.572 125.139 120.884 124.94 121.196C124.826 121.367 124.74 121.537 124.655 121.707C124.569 121.877 124.541 122.076 124.541 122.246V122.274C124.712 127.296 126.763 131.552 130.466 134.928C133.001 137.254 135.593 139.495 138.128 141.793C138.755 142.361 139.268 142.957 139.638 143.581C140.008 144.205 140.208 144.886 140.208 145.595C140.208 146.134 140.094 146.73 139.809 147.354C139.553 147.921 139.239 148.347 138.897 148.659C138.356 149.141 137.701 149.397 136.989 149.539C136.277 149.68 135.479 149.709 134.682 149.709V149.964Z" fill="white"/>
<path fill-rule="evenodd" clip-rule="evenodd" d="M122.096 152.12C119.333 152.149 116.968 150.787 116.228 148.886C115.259 146.446 116.142 144.319 117.453 142.304C117.623 142.021 118.25 142.049 118.677 141.907C118.82 142.389 119.105 142.872 119.048 143.326C118.934 143.921 118.506 144.432 118.279 144.999C117.737 146.418 117.481 147.808 118.763 149C120.045 150.191 121.64 150.532 123.15 149.681C124.631 148.858 125.856 147.524 127.365 146.787C128.904 146.049 130.641 145.652 132.322 145.283C132.635 145.226 133.119 145.992 133.518 146.361C133.062 146.645 132.607 146.957 132.122 147.184C130.727 147.78 129.16 148.12 127.935 148.971C125.913 150.361 124.147 152.007 122.096 152.12Z" fill="white"/>
<path d="M122.096 152.12V151.893C122.068 151.893 122.011 151.893 121.982 151.893C120.672 151.893 119.447 151.553 118.479 151.014C117.51 150.475 116.798 149.68 116.456 148.829C116.171 148.148 116.057 147.496 116.057 146.843C116.057 145.311 116.741 143.864 117.653 142.474C117.653 142.446 117.681 142.417 117.767 142.389C117.852 142.332 118.023 142.304 118.194 142.276C118.365 142.247 118.564 142.219 118.735 142.162L118.678 141.935L118.45 141.992C118.507 142.219 118.621 142.446 118.678 142.644C118.764 142.843 118.821 143.042 118.821 143.183C118.821 143.212 118.821 143.269 118.821 143.297C118.792 143.552 118.65 143.808 118.507 144.063C118.365 144.318 118.194 144.602 118.051 144.914C117.795 145.595 117.596 146.276 117.596 146.957C117.596 147.354 117.653 147.723 117.824 148.12C117.994 148.489 118.251 148.858 118.593 149.198C119.419 149.964 120.416 150.418 121.413 150.418C122.011 150.418 122.638 150.248 123.236 149.936C124.005 149.51 124.688 148.971 125.372 148.432C126.056 147.893 126.711 147.411 127.452 147.042C128.933 146.304 130.67 145.935 132.351 145.567L132.322 145.51V145.567H132.351L132.322 145.51V145.567C132.322 145.567 132.408 145.595 132.465 145.68C132.579 145.794 132.721 145.935 132.864 146.106C133.006 146.276 133.149 146.446 133.319 146.588L133.49 146.418L133.376 146.219C132.892 146.503 132.465 146.815 132.009 147.014C131.325 147.297 130.585 147.553 129.873 147.808C129.161 148.063 128.42 148.375 127.793 148.829C126.796 149.51 125.856 150.276 124.916 150.872C123.976 151.468 123.065 151.865 122.096 151.922V152.12V152.347C123.179 152.29 124.176 151.837 125.144 151.212C126.113 150.617 127.053 149.851 128.021 149.17C128.591 148.772 129.275 148.489 129.987 148.205C130.699 147.95 131.439 147.694 132.152 147.411C132.664 147.184 133.12 146.843 133.576 146.588L133.861 146.418L133.633 146.191C133.462 146.021 133.234 145.765 133.035 145.51C132.921 145.396 132.835 145.283 132.721 145.198C132.664 145.141 132.607 145.113 132.55 145.084C132.493 145.056 132.408 145.028 132.322 145.028C132.294 145.028 132.265 145.028 132.237 145.028C130.556 145.396 128.79 145.765 127.252 146.531C126.455 146.928 125.771 147.439 125.087 147.978C124.404 148.517 123.748 149.028 123.008 149.425C122.467 149.709 121.925 149.851 121.413 149.851C120.53 149.851 119.675 149.482 118.906 148.772C118.593 148.489 118.393 148.177 118.251 147.865C118.108 147.553 118.051 147.24 118.051 146.9C118.051 146.304 118.222 145.68 118.479 145.028C118.593 144.772 118.735 144.517 118.906 144.233C119.048 143.949 119.219 143.666 119.276 143.325C119.276 143.269 119.305 143.212 119.305 143.127C119.305 142.871 119.219 142.644 119.134 142.417C119.048 142.19 118.963 141.992 118.906 141.793L118.849 141.623L118.621 141.68C118.45 141.737 118.194 141.765 117.938 141.822C117.824 141.85 117.681 141.878 117.567 141.935C117.453 141.992 117.339 142.049 117.254 142.19C116.314 143.637 115.573 145.141 115.573 146.815C115.573 147.524 115.716 148.233 116.001 148.971C116.399 149.964 117.197 150.815 118.251 151.411C119.305 152.007 120.587 152.347 121.982 152.347C122.011 152.347 122.068 152.347 122.096 152.347V152.12Z" fill="white"/>
<path fill-rule="evenodd" clip-rule="evenodd" d="M128.474 166.816C133.801 162.873 136.621 162.986 142.346 165.937C145.65 167.639 149.496 168.263 153.085 169.398C153.883 169.653 155.193 169.937 155.307 170.419C155.478 171.185 155.05 172.349 154.481 172.944C138.928 189.201 118.191 189.257 102.496 172.916C101.954 172.349 101.356 171.072 101.612 170.646C102.011 169.994 103.122 169.682 103.977 169.426C107.48 168.32 111.354 167.838 114.488 166.05C119.53 163.156 123.945 162.816 128.474 166.816ZM150.237 171.384C147.958 170.618 146.363 170.221 144.853 169.568C143.343 168.916 141.89 168.093 140.466 167.27C136.621 165.001 133.516 165.171 130.268 168.15C128.93 169.398 128.104 169.341 126.793 168.15C123.745 165.341 120.697 165.114 117.222 166.901C114.117 168.518 110.927 169.965 107.708 171.526C121.581 175.384 135.567 175.866 150.237 171.384ZM106.085 173.228C118.618 186.137 137.874 186.505 150.892 173.341C135.909 178.023 121.125 177.427 106.085 173.228Z" fill="white"/>
<path d="M128.474 166.816L128.616 167.015C130.012 165.965 131.237 165.228 132.348 164.745C133.487 164.263 134.513 164.036 135.595 164.036C137.504 164.036 139.526 164.774 142.232 166.164C145.565 167.866 149.439 168.49 152.999 169.625C153.427 169.767 153.939 169.88 154.367 170.051C154.566 170.136 154.765 170.221 154.879 170.306C154.936 170.334 154.993 170.391 155.022 170.419C155.05 170.448 155.05 170.476 155.05 170.476C155.079 170.561 155.079 170.675 155.079 170.788C155.079 171.1 154.993 171.498 154.851 171.866C154.709 172.235 154.509 172.576 154.281 172.803C146.533 180.888 137.532 184.945 128.502 184.945C119.501 184.945 110.471 180.917 102.666 172.774C102.467 172.576 102.239 172.235 102.068 171.866C101.983 171.696 101.926 171.526 101.869 171.356C101.812 171.185 101.783 171.044 101.783 170.93C101.783 170.845 101.812 170.788 101.812 170.76C101.954 170.505 102.296 170.278 102.695 170.107C103.122 169.937 103.606 169.767 104.034 169.653C107.509 168.547 111.383 168.065 114.573 166.277C116.994 164.916 119.245 164.121 121.409 164.121C123.717 164.121 125.967 165.001 128.274 167.015L128.417 167.157L128.559 167.043L128.474 166.816L128.645 166.646C126.28 164.547 123.888 163.611 121.466 163.611C119.188 163.611 116.852 164.433 114.402 165.823C111.326 167.554 107.48 168.036 103.948 169.171C103.521 169.313 103.008 169.455 102.552 169.653C102.097 169.852 101.669 170.107 101.441 170.505C101.356 170.646 101.356 170.788 101.356 170.93C101.356 171.271 101.498 171.668 101.669 172.065C101.869 172.462 102.097 172.831 102.353 173.086C110.215 181.314 119.387 185.428 128.559 185.399C137.731 185.399 146.875 181.285 154.68 173.115C154.965 172.831 155.193 172.434 155.364 172.037C155.535 171.639 155.62 171.185 155.62 170.788C155.62 170.646 155.62 170.505 155.592 170.363C155.563 170.249 155.506 170.164 155.449 170.079C155.335 169.937 155.164 169.852 154.993 169.767C154.737 169.625 154.424 169.54 154.082 169.426C153.769 169.341 153.455 169.228 153.199 169.171C149.581 168.036 145.764 167.412 142.488 165.738C139.754 164.348 137.674 163.554 135.624 163.554C134.484 163.554 133.373 163.809 132.177 164.32C131.009 164.83 129.756 165.596 128.331 166.646L128.474 166.816ZM150.236 171.384L150.322 171.157C148.043 170.391 146.419 169.994 144.938 169.341C143.428 168.717 142.004 167.894 140.58 167.072C138.814 166.05 137.19 165.483 135.624 165.483C134.655 165.483 133.743 165.682 132.803 166.107C131.892 166.533 130.98 167.157 130.069 167.98C129.756 168.292 129.471 168.49 129.214 168.632C128.958 168.774 128.73 168.831 128.502 168.831C128.274 168.831 128.046 168.774 127.79 168.632C127.534 168.49 127.249 168.263 126.907 167.98C125.113 166.334 123.261 165.511 121.352 165.511C119.985 165.511 118.561 165.909 117.08 166.675C113.975 168.263 110.785 169.739 107.566 171.299L106.996 171.583L107.594 171.753C114.687 173.739 121.837 174.845 129.072 174.845C136.022 174.845 143.058 173.824 150.265 171.639L150.977 171.412L150.265 171.185L150.236 171.384L150.179 171.157C143.03 173.342 136.022 174.363 129.129 174.363C121.922 174.363 114.829 173.257 107.765 171.299L107.708 171.526L107.822 171.753C111.041 170.193 114.231 168.746 117.336 167.128C118.76 166.391 120.099 166.022 121.381 166.022C123.176 166.022 124.885 166.76 126.622 168.348C126.964 168.66 127.277 168.916 127.591 169.086C127.904 169.256 128.217 169.341 128.531 169.341C128.844 169.341 129.157 169.256 129.471 169.086C129.784 168.916 130.097 168.689 130.439 168.348C131.322 167.526 132.177 166.958 133.031 166.561C133.886 166.164 134.74 165.994 135.652 165.994C137.105 165.994 138.643 166.504 140.352 167.497C141.776 168.32 143.229 169.143 144.767 169.795C146.305 170.448 147.901 170.873 150.179 171.611L150.236 171.384ZM106.084 173.228L105.914 173.398C112.294 179.952 120.384 183.3 128.531 183.3C136.535 183.3 144.568 180.065 151.062 173.512L151.746 172.831L150.835 173.115C143.656 175.356 136.507 176.406 129.385 176.406C121.666 176.406 113.946 175.186 106.17 173.001L105.315 172.774L105.942 173.398L106.084 173.228L106.028 173.455C113.832 175.64 121.609 176.86 129.357 176.86C136.535 176.86 143.713 175.81 150.948 173.569L150.863 173.342L150.692 173.171C144.283 179.64 136.364 182.817 128.502 182.817C120.498 182.817 112.522 179.526 106.227 173.058L106.084 173.228Z" fill="white"/>
<path d="M81.9308 194.705L82.9563 194.364L54.756 107.891L127.991 54.9226L201.226 107.891L173.254 193.627H81.9308V194.705V195.783H174.821L203.79 107.068L127.991 52.2274L52.1924 107.068L81.1332 195.783H81.9308V194.705Z" fill="white"/>
<path d="M133.574 53.5606C133.574 56.6247 131.067 59.1213 127.991 59.1213C124.914 59.1213 122.408 56.6247 122.408 53.5606C122.408 50.4966 124.914 48 127.991 48C131.067 48 133.574 50.4966 133.574 53.5606Z" fill="white"/>
<path d="M208.004 106.727C208.004 109.791 205.497 112.288 202.421 112.288C199.345 112.288 196.838 109.791 196.838 106.727C196.838 103.663 199.345 101.166 202.421 101.166C205.497 101.166 208.004 103.663 208.004 106.727Z" fill="white"/>
<path d="M179.806 194.704C179.806 197.768 177.299 200.265 174.223 200.265C171.146 200.265 168.64 197.768 168.64 194.704C168.64 191.64 171.146 189.144 174.223 189.144C177.299 189.115 179.806 191.612 179.806 194.704Z" fill="white"/>
<path d="M85.8278 194.704C85.8278 197.768 83.3211 200.265 80.2447 200.265C77.1683 200.265 74.6616 197.768 74.6616 194.704C74.6616 191.64 77.1683 189.144 80.2447 189.144C83.3496 189.115 85.8278 191.612 85.8278 194.704Z" fill="white"/>
<path d="M59.1676 107.465C59.1676 110.529 56.6609 113.026 53.5845 113.026C50.5081 113.026 48.0015 110.529 48.0015 107.465C48.0015 104.401 50.5081 101.904 53.5845 101.904C56.6609 101.904 59.1676 104.401 59.1676 107.465Z" fill="white"/>
</svg>
